<svg width="538" height="356" viewBox="0 0 538 356" fill="none" xmlns="http://www.w3.org/2000/svg">
<rect opacity="0.7" x="2" y="2" width="534" height="352" fill="#DA775D" stroke="url(#paint0_linear_3520_2480)" stroke-width="4"/>
<path fill-rule="evenodd" clip-rule="evenodd" d="M375.951 254.702C373.82 257.168 370.671 258.998 368.256 261.252C365.72 263.62 362.966 265.689 360.44 268.028C349.295 254.406 334.027 246.054 320.801 234.75C314.531 229.391 309.911 222.122 306.53 214.662C304.797 210.838 303.517 206.901 302.515 202.827C302.064 200.992 301.622 199.163 301.327 197.303C300.97 195.051 300.878 194.858 299.358 193.1C298.704 192.344 297.436 190.133 296.155 190.377C295.076 190.582 293.104 193.864 292.423 194.675C289.145 198.575 285.968 202.594 282.517 206.343C277.238 212.079 272.432 217.724 267.53 223.804C257.504 236.243 246.688 247.952 235.774 259.657C234.965 260.525 233.077 263.07 231.914 263.412C230.5 263.828 228.202 262.093 226.778 261.124C223.341 258.784 220.632 255.887 217.693 252.987C211.959 247.327 208.076 239.382 205.464 231.823C203.901 227.298 202.884 222.608 201.27 218.099C200.598 216.219 199.073 213.909 199.847 212.273C200.078 211.784 201.544 210.488 202.062 210.389C202.673 210.271 203.693 211.11 203.906 211.052C205.935 210.496 204.809 208.372 206.016 207.229C206.701 206.58 210.182 206.675 211.221 206.319C215.021 205.015 218.43 202.529 222.022 201.045C237.061 194.832 252.282 188.788 265.265 178.642C268.632 176.011 270.869 174.034 274.887 172.333C278.947 170.615 283.028 169.082 287.17 167.582C290.825 166.26 294.5 165.019 298.276 164.071C302.359 163.045 308.15 161.745 312.229 163.066C320.24 165.66 322.827 172.26 326.017 179.223C330.334 188.644 335.552 197.559 341.21 206.23C352.094 222.913 365.331 237.884 375.951 254.702Z" fill="#462730"/>
<path fill-rule="evenodd" clip-rule="evenodd" d="M134.695 107.211C134.254 106.987 130.813 108.388 130.235 108.602C127.927 109.458 125.754 110.881 123.58 112.038C125.246 114.066 126.913 116.094 128.578 118.122C130.211 114.116 132.31 110.811 134.695 107.211ZM135.831 132.134C135.264 132.197 140.05 143.698 140.609 144.989C142.643 149.686 144.778 154.337 146.838 159.022C148.835 163.562 151.368 167.738 153.919 171.979C156.101 175.606 158.346 181.235 161.638 183.922C159.56 174.7 159.833 164.097 153.871 156.354C147.691 148.328 141.581 140.489 135.831 132.134ZM375.951 255.112C366.716 240.488 355.155 227.55 345.525 213.187C340.133 205.145 334.884 196.999 330.345 188.438C327.044 182.211 324.992 173.326 319.892 168.565C317.645 166.468 315.244 164.415 312.229 163.475C308.102 162.189 302.421 163.464 298.275 164.48C290.551 166.375 283.004 169.316 275.687 172.405C268.265 175.538 261.933 181.166 255.227 185.687C248.034 190.538 240.247 194.072 232.188 197.165C225.171 199.859 218.928 203.726 211.948 206.437C210.557 206.977 207.718 206.898 206.552 207.603C205.294 208.361 205.789 210.601 204.263 211.427C203.574 211.8 203.345 210.449 202.816 210.471C202.17 210.498 201.58 211.257 200.957 211.737C198.42 213.694 199.975 214.999 200.979 217.693C204.253 226.467 206.013 235.395 210.61 243.68C214.389 250.489 219.798 256.59 226.167 261.098C227.136 261.785 230.294 264.443 231.431 264.266C232.455 264.107 234.538 261.386 235.245 260.647C238.452 257.293 241.383 253.685 244.589 250.326C249.541 245.135 254.309 239.804 259.116 234.542C264.696 228.433 269.634 221.512 274.66 214.985C276.971 211.982 279.947 209.536 282.517 206.752C285.972 203.008 289.145 198.984 292.422 195.085C293.414 193.905 295.075 190.887 296.616 190.922C297.696 190.947 299.6 193.49 300.165 194.286C302.264 197.248 302.255 202.596 303.299 206.293C305.846 215.308 310.44 224.113 316.741 231.069C323.006 237.987 331.031 242.906 338.441 248.467C346.468 254.491 354.073 260.656 360.439 268.438C362.966 266.098 365.719 264.029 368.255 261.661C370.671 259.407 373.819 257.577 375.951 255.112ZM257.075 296.485C258.87 296.504 261.911 297.608 263.517 296.943C258.753 291.672 254.377 287.149 248.35 283.285C242.095 279.276 235.86 275.303 229.785 271.027C217.541 262.41 208.536 252.19 203.422 237.839C202.105 234.144 201.223 230.268 200.258 226.469C199.739 224.423 198.705 214.851 196.95 214.025C195.91 213.535 188.085 219.035 186.845 219.72C183.946 221.323 181.036 222.567 178.039 223.821C171.597 226.518 164.956 228.576 158.124 230.293C149.934 232.353 144.355 228.945 139.282 222.508C133.525 215.205 128.742 206.964 123.479 199.295C121.086 195.806 119.103 192.324 117.335 188.476C116.178 185.959 111.59 179.166 113.176 176.484C117.699 179.928 119.326 186.775 122.407 191.385C126.247 197.132 130.575 202.55 134.434 208.291C137.68 213.118 140.992 218.968 145.787 222.439C150.005 225.491 154.012 224.553 158.552 223.181C164.053 221.518 169.756 220.699 175.148 218.637C180.983 216.406 186.504 213.241 192.197 210.66C194.851 209.457 198.029 208.773 200.53 207.272C202.685 205.98 202.364 205.297 202.522 202.545C202.707 199.335 202.92 196.121 203.062 192.908C203.157 190.748 201.989 187.821 202.782 186.209C196.319 187.329 190.002 188.83 183.584 190.158C180.07 190.885 176.682 191.783 173.132 192.354C171.779 192.572 169.929 192.566 168.717 193.155C167.751 192.878 167.258 193.054 167.239 193.684C167.193 194.027 167.12 194.364 167.019 194.696C165.037 195.597 163.885 193.664 162.166 191.809C160.045 189.52 158.457 186.942 156.901 184.252C153.421 178.238 149.411 172.582 146.191 166.399C142.909 160.095 140.244 153.347 137.462 146.807C134.909 140.807 133.275 134.318 130.454 128.461C129.196 125.846 127.6 123.684 125.737 121.475C124.2 119.652 121.835 115.72 119.539 114.883C118.932 114.661 117.343 115.033 116.653 114.984C115.279 114.886 114.054 114.382 112.648 114.492C109.602 114.73 106.282 116.656 103.849 118.349C105.422 119.751 109.356 121.455 106.53 123.98C103.788 126.431 102.273 122.034 101.227 120.107C96.2992 124.153 97.0115 129.733 96.4423 135.45C96.1449 138.434 95.3628 141.374 94.8583 144.314C94.4949 146.43 94.7497 148.618 94.6459 150.779C94.3811 156.268 93.8294 161.523 93.8563 166.935C93.8846 172.721 94.2787 178.308 94.7417 184.051C95.521 193.721 97.3064 203.394 98.8375 212.987C99.6989 218.38 100.878 223.619 102.022 228.924C103.321 234.945 105.724 240.648 107.072 246.653C108.445 244.908 109.477 244.899 111.698 245.13C113.406 245.308 114.553 244.902 114.453 247.273C114.389 248.81 113.032 249.985 111.531 250.253C109.574 250.603 108.909 249.626 107.9 248.144C107.664 250.951 109.552 253.886 110.299 256.628C111.006 259.226 111.474 261.773 112.661 264.26C113.82 266.686 114.812 269.079 115.984 271.482C116.524 272.587 117.029 273.71 117.575 274.813C117.852 275.371 118.177 276.14 118.589 276.611C119.555 277.714 119.402 277.179 120.533 277.808C122.998 279.177 122.072 278.836 122.13 281.663C122.186 284.452 123.616 286.501 125.909 288.068C130.775 291.394 135.574 292.32 141.105 294C146.259 295.566 151.688 296.91 157.145 296.879C163.83 296.842 170.425 295.966 177.109 295.877C184.483 295.779 191.928 295.819 199.287 296.074C202.319 296.179 205.134 296.314 208.061 297.088C211.46 297.987 214.747 297.631 218.25 297.494C225.724 297.204 233.455 296.625 240.83 296.573C246.141 296.536 251.744 296.165 257.075 296.485ZM450.863 299.382C452.191 300.084 455.169 299.796 456.505 299.601C458.858 299.258 459.11 298.325 460.603 296.227C463.172 292.615 465.258 289.154 466.77 284.969C469.663 276.96 470.845 268.765 472.115 260.386C473.526 251.076 470.948 241.425 470.026 232.178C469.814 230.057 469.524 227.955 469.189 225.849C468.989 224.59 468.936 220.308 468.108 219.218C466.517 217.125 459.116 218.813 456.206 219.003C448.084 219.534 439.909 219.658 431.791 219.75C427.463 219.799 423.11 219.98 418.825 220.014C416.857 220.029 414.932 219.932 412.957 219.74C412.296 219.676 411.651 219.524 410.986 219.487C408.707 219.361 408.878 219.031 408.289 221.049C407.258 224.584 408.051 229.081 407.781 232.75C407.418 237.653 407.222 242.626 407.312 247.539C407.395 252.079 407.24 256.609 407.41 261.16C407.48 263.044 407.686 264.581 408.183 266.38C408.745 268.415 409.364 273.169 410.763 274.577C410.922 274.737 412.112 274.363 412.428 274.762C412.915 275.377 412.825 276.679 413.16 277.076C414.241 278.363 416.476 278.465 418.097 279.043C422.545 280.629 426.626 282.351 430.819 284.49C434.565 286.401 440.605 288.028 442.857 291.798C443.89 293.526 444.029 295.806 444.978 297.589C446.06 299.62 443.896 298.558 446.545 299.382C447.739 299.753 449.64 299.382 450.863 299.382ZM55.9339 276.407C55.5969 281.098 52.9543 285.566 52.0345 290.179C51.604 292.338 50.8739 294.461 50.3679 296.608C49.8827 298.668 48.1298 301.107 48.3073 303.145C54.7771 300.84 61.3305 300.261 68.0925 299.639C74.5015 299.049 81.272 298.815 87.6271 298.812C94.1031 298.809 101.028 298.176 107.696 298.078C114.669 297.976 121.748 297.795 128.62 297.072C125.027 294.41 120.53 291.911 117.877 288.208C114.992 284.182 113.494 279.139 110.956 274.891C105.862 266.366 102.624 255.789 99.9538 246.212C94.5633 226.879 88.5395 207.903 87.0877 187.849C84.3247 189.264 82.1315 194.754 80.7481 197.488C78.9824 200.978 78.0578 204.761 76.91 208.471C74.5463 216.112 72.9105 224.034 70.0163 231.603C64.4847 246.07 60.9293 261.658 55.9339 276.407ZM407.137 163.729C408.334 172.376 410.843 181.134 410.939 189.885C410.96 191.81 410.634 193.948 411.035 195.847C411.464 197.873 412.858 199.665 413.662 201.591C414.939 204.648 418.174 210.915 415.055 213.506C414.991 211.048 412.741 207.925 411.608 205.776C409.9 202.536 407.656 199.575 405.804 196.416C401.928 189.804 397.585 183.334 392.59 177.505C387.725 171.827 382.118 166.79 376.959 161.384C375.409 159.759 362.974 144.124 362.48 144.343C366.337 159.217 372.894 172.158 381.867 184.612C386.266 190.717 391.546 194.734 396.901 199.906C401.361 204.213 409.767 208.819 408.225 215.876C415.196 215.206 422.122 214.135 429.157 214.135C428 205.231 427.114 196.469 425.049 187.711C422.704 177.767 421.116 167.526 419.132 157.493C417.107 147.251 413.672 137.336 411.536 127.114C409.49 117.325 407.732 107.554 406.232 97.6557C404.993 103.14 405.45 109.164 405.01 114.76C404.561 120.477 404.604 126.088 404.754 131.839C405.031 142.52 406.169 153.073 407.137 163.729ZM437.347 112.804C437.386 108.232 438.272 103.722 438.545 99.1604C438.629 97.7609 440.023 88.2133 438.723 87.7149C437.654 90.0455 437.405 93.028 436.434 95.4733C435.464 97.9162 434.166 100.244 433.236 102.703C431.219 108.033 430.524 114.063 430.307 119.728C429.815 132.543 429.561 145.33 430.423 158.145C430.792 163.638 431.075 169.14 430.974 174.644C430.863 180.699 429.936 185.956 431.062 191.962C432.177 197.91 432.877 203.833 433.248 209.868C433.509 214.104 433.614 213.804 437.655 213.506C440.572 213.291 443.518 213.521 446.44 213.387C445.074 196.879 444.851 180.337 442.669 163.893C441.555 155.503 441.525 146.993 440.143 138.635C439.455 134.483 438.302 130.414 437.64 126.257C436.928 121.794 437.279 117.301 437.347 112.804ZM141.838 102.415C149.618 103.089 157.893 105.415 165.867 103.879C164.553 103.347 161.113 102.612 162.661 100.511C164.235 98.3745 166.888 101.085 168.457 100.805C169.425 100.632 171.564 96.5857 172.161 95.748C173.515 93.844 173.678 93.5122 176.113 93.0242C178.472 92.5522 179.007 93.0634 179.306 90.7181C179.649 88.0212 178.716 84.9893 178.808 82.2315C179.007 76.2945 180.922 71.0881 182.705 65.5023C175.131 67.15 167.725 69.104 159.981 70.1659C156.671 70.6199 151.52 71.6673 148.513 69.4169C147.731 68.8316 147.856 68.0415 147.216 67.3633C146.143 66.2254 144.152 65.0483 142.63 64.724C133.263 62.7299 132.349 76.0835 137.043 81.0804C138.219 82.3325 139.855 82.9508 141.059 84.0982C142.666 85.6283 142.797 87.2401 143.032 89.5759C143.472 93.9559 142.874 98.3528 141.006 102.359L141.838 102.415ZM255.512 165.457C258.277 165.982 261.163 165.862 263.935 166.31C264.92 166.469 267.874 167.024 268.74 166.448C270.062 165.569 270.532 162.344 271.158 160.842C272.257 158.2 273.813 155.896 274.862 153.206C279.148 142.22 283.144 131.189 288.327 120.578C286.341 120.061 284.815 120.041 282.813 119.774C280.727 119.496 278.837 118.263 276.847 117.733C274.956 117.23 272.974 117.358 271.1 116.772C270.068 116.45 269.182 115.733 268.165 115.482C266.543 115.083 264.649 114.85 263.685 115.915C262.696 117.007 262.349 120.002 261.811 121.413C260.378 125.171 258.713 128.798 257.513 132.643C256.43 136.11 255.401 139.541 254.448 143.04C253.44 146.735 251.455 149.779 250.246 153.308C249.326 155.994 248.458 158.74 248.321 161.604C248.187 164.399 247.781 164.577 250.575 165.023C251.986 165.248 254.184 166.087 255.512 165.457ZM437.454 296.249C438.174 296.585 438.853 296.54 439.49 296.115C433.246 293.478 427.172 289.82 420.658 288.01C414.547 286.314 408.608 284.286 402.721 282.196C397.937 280.498 393.637 279.176 389.312 276.187C386.687 274.373 384.355 272.333 382.551 269.682C380.543 266.73 380.096 262.53 377.921 259.872C374.985 263.096 371.537 265.537 368.063 268.099C366.862 268.985 363.979 270.918 363.568 272.289C363.049 274.02 364.439 275.676 365.126 277.427C366.886 281.913 367.746 286.396 368.701 291.06C369.084 292.929 369.91 295.739 371.445 296.522C372.843 297.234 376.892 296.716 378.632 296.584C387.708 295.896 396.623 295.192 405.754 295.818C416.086 296.527 427.148 297.016 437.454 296.249ZM455.582 213.128C457.231 213.134 458.843 212.928 460.486 212.928C459.537 208.498 461.755 202.767 462.542 198.345C463.421 193.399 464.091 188.285 464.678 183.3C465.914 172.799 466.475 162.425 466.491 151.847C466.506 141.611 468.369 132.258 470.979 122.418C473.782 111.85 478.371 102.347 482.166 92.1558C478.004 94.3561 475.699 99.5049 473.512 103.441C470.747 108.418 468.906 113.929 467.777 119.516C465.599 130.295 463.209 141.106 460.696 151.866C458.079 163.071 456.54 174.378 453.542 185.49C452.08 190.91 450.092 197.577 449.982 203.166C449.936 205.477 449.239 210.319 450.287 212.327C451.267 214.205 453.433 213.32 455.582 213.128ZM206.59 199.227C206.503 200.378 206.421 201.472 206.217 202.609C208.502 202.587 211.395 200.216 213.355 199.152C215.742 197.855 218.132 196.425 220.467 195.122C224.975 192.606 230.092 190.947 234.905 188.88C240.433 186.505 245.515 183.636 250.802 180.776C252.649 179.778 265.922 174.024 265.699 172.453C262.785 172.355 259.871 172.259 256.957 172.162C254.459 172.079 250.589 172.643 248.197 171.871C246.887 171.448 245.415 169.89 244.921 168.67C244.431 167.462 245.532 161.91 244.892 161.556C241.631 164.885 239.58 169.311 236.664 172.903C233.442 176.874 229.278 179.192 224.689 181.302C219.621 183.632 214.376 185.436 209.197 187.433C207.013 188.275 207.057 188.757 206.866 191.152C206.653 193.828 206.677 196.543 206.59 199.227ZM469.928 299.928C475.421 300.517 481.051 300.181 486.587 300.641C488.602 300.808 491.394 301.057 489.368 303.761C488.092 305.464 484.003 304.918 482.149 305.036C477.17 305.352 471.899 305.182 466.908 305.108C465.858 305.093 464.697 304.781 463.635 304.851C462.409 304.932 460.941 305.813 459.824 305.807C459.135 305.802 458.888 305.076 458.295 305.01C457.001 304.864 455.708 304.758 454.403 304.758C434.679 304.763 415.226 304.366 395.552 304.345C386.144 304.335 376.585 304.173 367.181 303.731C365.206 303.638 353.96 304.042 354.271 300.486C354.431 298.655 358.102 298.397 359.441 298.202C360.434 298.058 361.464 298.081 362.458 298.028C365.1 297.886 366.257 298.522 365.7 295.631C363.586 284.666 359.798 275.604 351.705 267.72C345.086 261.273 337.118 255.426 329.622 250.042C320.52 243.505 313.137 236.631 307.733 226.628C304.577 220.787 301.936 214.815 300.314 208.356C299.731 206.033 299.717 203.39 299.002 201.15C298.452 199.426 297.199 198.219 296.461 196.432C287.405 211.557 275.403 224.211 264.399 237.849C259.141 244.364 253.142 250.552 246.86 256.22C244.995 257.902 243.256 259.658 241.516 261.468C240.06 262.983 237.749 264.33 236.52 266.011C235.341 267.623 235.631 267.546 237.426 268.826C239.798 270.518 242.412 271.924 244.822 273.575C248.673 276.212 252.877 278.441 256.32 281.616C260.045 285.049 263.299 289.026 266.554 292.897C268.724 295.477 271.571 298.788 272.116 302.05C272.297 303.13 272.983 305.799 272.077 306.59C271.303 307.265 271.381 307.009 270.42 306.597C269.161 306.057 268.791 304.818 267.252 304.227C263.317 302.717 258.554 303.236 254.459 303.217C250.362 303.199 246.231 303.659 242.136 303.642C232.785 303.604 223.634 304.361 214.286 304.767C204.357 305.199 194.307 304.163 184.412 304.31C177.08 304.419 169.553 303.871 162.019 304.278C158.143 304.487 154.337 304.002 150.559 303.948C145.611 303.877 140.531 304.55 135.541 304.646C127.351 304.804 119.261 304.803 111.022 305C93.2979 305.424 75.6701 305.862 57.9361 306.143C55.5705 306.18 52.9808 306.1 50.6431 306.366C48.1619 306.649 49.4428 307.176 47.7404 308.07C42.9744 310.57 44.0751 301.302 44.1893 299.479C44.8019 289.711 47.2817 280.131 50.2617 270.858C53.0889 262.063 55.3841 252.857 57.7784 243.872C60.3993 234.037 63.8141 224.605 66.9149 214.867C70.0923 204.889 72.6792 194.521 78.45 185.676C79.7645 183.662 81.1228 181.494 83.2373 180.224C85.6076 178.8 85.7095 179.631 85.7076 177.026C85.7062 174.571 85.8572 171.293 85.2781 168.951C84.7547 166.835 84.8354 168.089 83.6569 166.569C82.6978 165.333 81.6944 164.488 81.0063 162.988C76.7792 167.274 67.1033 165.012 63.0192 161.926C58.0205 158.148 54.2131 151.775 52.8179 145.705C51.6975 140.831 53.0723 131.54 58.467 129.196C61.0969 128.054 70.7564 127.19 71.1429 123.466C71.3421 121.544 67.9424 118.841 67.158 117.188C65.7043 114.126 64.3082 110.053 63.9042 106.696C63.1151 100.144 66.0895 92.8175 70.8276 88.3917C79.5195 80.2728 94.813 76.1062 105.994 81.2573C103.631 72.2317 102.205 64.4455 103.394 55.057C104.42 46.9687 109.192 42.4434 115.758 38.4146C126.964 31.5387 142.202 28.8249 155.015 30.8242C157.927 31.2787 160.721 32.2533 163.417 33.0288C167.333 34.1554 172.022 33.7802 175.72 35.6106C178.401 36.9373 180.437 39.5804 182.792 41.3451C185.541 43.4053 187.825 46.4802 189.735 49.3239C193.82 55.4048 192.224 66.6907 188.805 72.7948C188.072 74.1041 187.167 75.2061 185.954 76.0996C184.691 77.0294 182.765 77.3187 182.114 78.5246C180.447 81.6137 182.055 88.3011 182.278 91.6399C182.537 95.5167 180.577 98.4288 176.181 98.7379C173.638 98.9173 173.557 97.4419 172.339 100.478C171.55 102.445 170.833 104.589 169.694 106.393C167.346 110.111 163.045 109.748 159.128 109.647C154.593 109.53 150.126 108.814 145.589 108.362C146.788 112.201 150.068 115.181 152.116 118.602C154.886 123.228 156.553 127.063 157.003 132.453C157.348 136.594 156.603 139.864 153.769 142.946C152.596 144.222 151.556 144.285 151.848 145.756C152.025 146.654 153.577 148.135 154.127 148.851C155.58 150.747 157.267 152.487 158.546 154.511C163.468 162.299 164.922 174.172 164.934 183.239C164.935 183.655 165.156 184.539 164.973 184.969C164.837 185.287 163.804 186.292 163.789 186.379C163.587 187.545 164.724 189.543 166.507 189.741C168.38 189.948 171.811 188.385 173.554 187.871C176.342 187.049 179.184 186.442 181.967 185.598C186.46 184.234 190.933 183.147 195.502 182.078C197.566 181.596 199.642 181.194 201.713 180.742C204.072 180.229 205.168 179.236 206.385 181.636C207.43 183.696 206.78 184.069 209.311 183.031C211.823 182 214.278 180.722 216.731 179.558C221.057 177.506 226.209 175.677 229.941 172.647C236.166 167.593 238.471 159.544 244.429 154.181C246.088 152.687 247.077 152.661 248.126 150.592C249.249 148.378 249.828 145.539 250.418 143.157C251.452 138.987 252.188 134.802 253.126 130.635C254.294 125.444 256.818 120.743 258.661 115.792C259.378 113.863 259.75 111.411 260.908 109.678C261.215 109.218 261.801 108.959 262.04 108.579C262.864 107.273 262.855 106.914 263.069 105.343C264.067 98.0012 268.449 101.863 273.238 103.547C275.256 104.256 284.836 108.857 281.178 111.916C285.539 113.181 292.524 112.494 292.465 118.744C292.435 121.946 290.52 125.372 289.492 128.369C288.579 131.031 287.696 133.702 286.769 136.36C284.737 142.181 282.272 147.827 280.289 153.666C279.385 156.327 278.639 159.05 277.381 161.562C276.271 163.777 273.584 166.219 273.142 168.642C284.763 163.684 295.514 156.515 308.522 156.972C314.218 157.172 319.387 159.566 322.533 164.574C326.477 170.852 329.072 177.88 332.927 184.215C346.949 207.261 363.674 228.198 379.068 250.29C380.251 251.988 381.771 253.593 382.181 255.691C382.449 257.06 381.93 258.429 382.251 259.744C382.917 262.477 386.282 265.889 388.563 267.459C392.936 270.469 400.046 274.715 405.503 274.34C402.078 266.108 402.124 257.089 402.283 248.309C402.434 239.969 403.336 231.696 404.406 223.441C404.648 221.574 404.859 219.842 405.396 218.032C406.012 215.956 406.857 216.152 405.012 214.286C402.173 211.411 398.796 209.046 395.933 206.136C389.742 199.843 383.397 194.91 378.524 187.395C373.89 180.247 369.002 172.892 365.571 165.064C362.04 157.006 360.628 148.401 358.875 139.867C358.164 136.404 355.57 132.538 356.091 128.922C356.75 124.352 358.869 127.68 359.732 130.139C362.365 137.647 368.529 144.366 373.635 150.404C379.151 156.927 385.898 162.384 391.656 168.717C397.927 175.615 402.222 183.542 407.798 190.905C407.798 181.767 404.678 172.463 403.402 163.423C402.279 155.467 401.926 147.486 401.216 139.495C399.604 121.344 400.997 102.658 403.259 84.6367C404.335 76.0779 403.725 67.7206 403.757 59.1325C403.768 56.3993 402.636 50.0998 404.078 47.6743C406.84 43.0287 408.451 53.187 408.59 54.7016C409.425 63.7239 407.928 72.6457 408.693 81.6293C409.492 91.0107 411.227 100.129 412.704 109.402C414.303 119.442 416.907 129.256 419.4 139.104C422.018 149.443 424.219 159.999 427.129 170.256C427.914 167.031 426.813 163.071 426.595 159.787C426.285 155.088 425.678 150.388 425.626 145.677C425.542 138.168 425.483 130.52 425.908 123.047C426.327 115.68 426.2 107.961 428.46 100.864C429.532 97.4952 431.105 94.2089 432.643 91.0358C434.542 87.1231 435.213 83.3293 436.264 79.1679C437.164 75.604 438.482 72.134 439.082 68.4989C439.455 66.2381 440.496 59.5644 443.084 64.6207C444.587 67.5554 443.937 71.9061 443.979 75.0589C444.033 79.1009 443.414 83.031 443.319 87.056C443.135 94.9532 443.002 102.841 442.413 110.725C441.795 118.996 442.335 126.409 443.908 134.559C445.631 143.48 446.135 152.421 447.027 161.451C447.487 166.114 448.263 170.751 448.638 175.42C448.836 177.893 447.82 184.983 449.591 186.744C449.763 182.461 450.99 178.175 451.92 174.002C453.022 169.058 453.467 163.86 454.28 158.846C455.595 150.721 458.147 142.962 459.836 134.929C463.317 118.368 466.209 97.0846 480.797 86.2452C482.706 84.8269 484.803 83.7801 486.867 82.6129C488.035 81.9521 489.77 80.2426 491.107 79.9443C492.566 79.6186 493.174 79.8716 493.766 81.5641C494.59 83.9235 493.082 85.0256 491.674 86.7394C486.802 92.6693 484.721 100.271 481.712 107.225C474.823 123.15 471.775 139.947 471.74 157.161C471.722 166.173 471.1 174.864 470.139 183.821C469.105 193.46 467.744 203.655 464.815 212.927C467.752 213.586 470.939 212.604 471.736 216.018C471.932 216.857 471.578 217.849 471.795 218.94C472.005 220.001 472.512 221.057 472.811 222.1C473.431 224.259 473.758 226.388 474.059 228.605C475.224 237.17 477.223 245.317 477.436 254.002C477.632 262.03 476.06 270.163 474.612 278.037C473.153 285.967 468.969 292.727 465.675 299.899C467.093 299.899 468.51 299.913 469.928 299.928Z" fill="#FEEDE1" fill-opacity="0.8"/>
<path fill-rule="evenodd" clip-rule="evenodd" d="M283.496 281.698C281.934 282.14 274.392 282.974 274.394 285.34C274.395 286.759 281.926 286.731 283.259 286.886C283.338 285.157 283.417 283.428 283.496 281.698ZM300.143 298.028C304.489 298.855 310.388 297.693 313.167 293.861C314.465 292.071 315.081 289.348 315.504 287.211C315.908 285.175 317.153 280.095 316.306 278.186C315.265 275.842 305.279 278.292 302.371 278.561C297.298 279.029 292.052 279.084 286.976 278.753C286.976 283.995 286.707 289.104 289.79 293.615C292.015 296.87 296.192 297.639 300.143 298.028ZM299.27 304.503C294.547 302.774 289.59 303.898 286.515 298.828C285.735 297.542 285.078 296.159 284.606 294.731C284.375 294.105 284.196 293.464 284.068 292.807C284.308 291.394 283.791 290.996 282.515 291.612C280.012 291.125 277.268 292.843 274.631 292.337C268.237 291.109 269.399 281.949 273.69 278.778C274.537 278.151 275.384 277.977 276.355 277.668C278.494 276.986 279.651 277.747 281.608 277.554C283.189 277.398 283.624 275.74 285.323 275.009C286.435 274.532 287.979 274.569 289.149 274.521C295.27 274.269 301.409 274.271 307.569 273.872C310.442 273.687 313.544 274.142 316.358 273.651C317.676 273.42 317.487 272.543 318.735 273.313C320.027 274.109 319.469 277.056 319.404 278.23C319.026 285.023 318.622 292.309 314.983 298.248C311.654 303.682 305.102 304.238 299.27 304.503Z" fill="#FEEDE1" fill-opacity="0.8"/>
<path fill-rule="evenodd" clip-rule="evenodd" d="M49.8834 306.375C51.4027 306.358 52.9215 306.342 54.4356 306.326C52.9144 306.343 51.3989 306.359 49.8834 306.375Z" fill="#FEEDE1" fill-opacity="0.8"/>
<path fill-rule="evenodd" clip-rule="evenodd" d="M471.75 161.536C471.747 160.077 471.744 158.617 471.741 157.161C471.744 158.621 471.747 160.079 471.75 161.536Z" fill="#FEEDE1" fill-opacity="0.8"/>
<path fill-rule="evenodd" clip-rule="evenodd" d="M85.2823 167.529C85.2776 168.951 85.2729 170.372 85.2682 171.79C85.2724 170.368 85.2771 168.948 85.2823 167.529Z" fill="#FEEDE1" fill-opacity="0.8"/>
<path fill-rule="evenodd" clip-rule="evenodd" d="M211.571 304.763C212.779 304.765 213.988 304.766 215.191 304.77C213.98 304.768 212.776 304.766 211.571 304.763Z" fill="#FEEDE1" fill-opacity="0.8"/>
<path fill-rule="evenodd" clip-rule="evenodd" d="M138.178 304.473C139.387 304.477 140.595 304.481 141.798 304.485C140.588 304.482 139.383 304.477 138.178 304.473Z" fill="#FEEDE1" fill-opacity="0.8"/>
<path fill-rule="evenodd" clip-rule="evenodd" d="M402.444 245.433C402.391 246.392 402.337 247.351 402.284 248.309C402.338 247.348 402.391 246.391 402.444 245.433Z" fill="#FEEDE1" fill-opacity="0.8"/>
<path fill-rule="evenodd" clip-rule="evenodd" d="M469.929 299.928C468.995 299.918 468.061 299.908 467.127 299.898C468.065 299.507 468.999 299.525 469.929 299.928Z" fill="#FEEDE1" fill-opacity="0.8"/>
<path fill-rule="evenodd" clip-rule="evenodd" d="M386.998 304.176C387.669 304.166 388.339 304.155 389.003 304.144C388.331 304.154 387.665 304.165 386.998 304.176Z" fill="#FEEDE1" fill-opacity="0.8"/>
<path fill-rule="evenodd" clip-rule="evenodd" d="M471.386 173.377C471.402 172.651 471.419 171.926 471.435 171.204C471.419 171.93 471.402 172.653 471.386 173.377Z" fill="#FEEDE1" fill-opacity="0.8"/>
<path fill-rule="evenodd" clip-rule="evenodd" d="M408.692 81.6293C408.637 80.8813 408.582 80.1336 408.526 79.3875C408.582 80.136 408.637 80.8827 408.692 81.6293Z" fill="#FEEDE1" fill-opacity="0.8"/>
<path fill-rule="evenodd" clip-rule="evenodd" d="M471.718 164.393C471.727 163.643 471.736 162.893 471.745 162.146C471.736 162.897 471.727 163.645 471.718 164.393Z" fill="#FEEDE1" fill-opacity="0.8"/>
<path fill-rule="evenodd" clip-rule="evenodd" d="M260.893 303.246C261.489 303.255 262.085 303.264 262.676 303.271C262.079 303.262 261.486 303.254 260.893 303.246Z" fill="#FEEDE1" fill-opacity="0.8"/>
<path fill-rule="evenodd" clip-rule="evenodd" d="M414.429 304.469C415.012 304.481 415.594 304.492 416.172 304.505C415.587 304.493 415.008 304.481 414.429 304.469Z" fill="#FEEDE1" fill-opacity="0.8"/>
<path fill-rule="evenodd" clip-rule="evenodd" d="M477.368 251.745C477.326 251.087 477.284 250.429 477.243 249.773C477.285 250.431 477.326 251.088 477.368 251.745Z" fill="#FEEDE1" fill-opacity="0.8"/>
<path fill-rule="evenodd" clip-rule="evenodd" d="M466.909 305.108C467.383 305.106 467.857 305.103 468.326 305.102C467.85 305.105 467.379 305.107 466.909 305.108Z" fill="#FEEDE1" fill-opacity="0.8"/>
<path fill-rule="evenodd" clip-rule="evenodd" d="M402.286 304.499C402.756 304.488 403.225 304.476 403.69 304.465C403.219 304.477 402.752 304.488 402.286 304.499Z" fill="#FEEDE1" fill-opacity="0.8"/>
<path fill-rule="evenodd" clip-rule="evenodd" d="M296.71 304.14C297.227 304.137 297.744 304.135 298.256 304.131C297.738 304.134 297.224 304.137 296.71 304.14Z" fill="#FEEDE1" fill-opacity="0.8"/>
<path fill-rule="evenodd" clip-rule="evenodd" d="M177.487 304.138C177.978 304.142 178.47 304.146 178.956 304.15C178.463 304.147 177.975 304.143 177.487 304.138Z" fill="#FEEDE1" fill-opacity="0.8"/>
<path fill-rule="evenodd" clip-rule="evenodd" d="M148.483 304.218C148.984 304.19 149.484 304.161 149.981 304.134C149.478 304.162 148.981 304.19 148.483 304.218Z" fill="#FEEDE1" fill-opacity="0.8"/>
<path fill-rule="evenodd" clip-rule="evenodd" d="M287.34 113.248C286.595 113.183 285.849 113.119 285.103 113.054C285.85 113.107 286.64 112.665 287.34 113.248Z" fill="#FEEDE1" fill-opacity="0.8"/>
<path fill-rule="evenodd" clip-rule="evenodd" d="M477.44 300.211C476.704 300.137 475.969 300.062 475.234 299.988C475.969 300.062 476.704 300.137 477.44 300.211Z" fill="#FEEDE1" fill-opacity="0.8"/>
<path fill-rule="evenodd" clip-rule="evenodd" d="M426.149 117.775C426.1 118.419 426.05 119.064 426.001 119.706C426.05 119.061 426.1 118.418 426.149 117.775Z" fill="#FEEDE1" fill-opacity="0.8"/>
<path fill-rule="evenodd" clip-rule="evenodd" d="M471.903 144.636C471.953 144.026 472.003 143.415 472.053 142.806C472.003 143.418 471.952 144.027 471.903 144.636Z" fill="#FEEDE1" fill-opacity="0.8"/>
<path fill-rule="evenodd" clip-rule="evenodd" d="M425.857 127.769C425.804 128.412 425.751 129.055 425.698 129.696C425.751 129.052 425.804 128.41 425.857 127.769Z" fill="#FEEDE1" fill-opacity="0.8"/>
<path fill-rule="evenodd" clip-rule="evenodd" d="M471.591 169.291C471.586 168.67 471.582 168.048 471.577 167.429C471.979 168.048 471.962 168.668 471.591 169.291Z" fill="#FEEDE1" fill-opacity="0.8"/>
<path fill-rule="evenodd" clip-rule="evenodd" d="M402.452 258.557C402.447 259.18 402.441 259.804 402.435 260.424C402.023 259.796 402.105 259.175 402.452 258.557Z" fill="#FEEDE1" fill-opacity="0.8"/>
<path fill-rule="evenodd" clip-rule="evenodd" d="M449.321 186.475C449.249 185.845 449.177 185.214 449.105 184.585C449.178 185.217 449.249 185.846 449.321 186.475Z" fill="#FEEDE1" fill-opacity="0.8"/>
<path fill-rule="evenodd" clip-rule="evenodd" d="M61.2316 128.598C60.7441 129.242 60.08 128.8 59.5004 128.879C60.0781 128.785 60.6549 128.691 61.2316 128.598Z" fill="#FEEDE1" fill-opacity="0.8"/>
<path fill-rule="evenodd" clip-rule="evenodd" d="M302.314 274.319C301.698 274.32 301.083 274.321 300.467 274.322C301.083 274.321 301.698 274.32 302.314 274.319Z" fill="#FEEDE1" fill-opacity="0.8"/>
<path fill-rule="evenodd" clip-rule="evenodd" d="M400.72 131.244C400.777 131.768 400.835 132.292 400.892 132.814C400.835 132.289 400.777 131.767 400.72 131.244Z" fill="#FEEDE1" fill-opacity="0.8"/>
<path fill-rule="evenodd" clip-rule="evenodd" d="M96.3192 79.2134C95.7 79.2257 95.0808 79.2379 94.4615 79.2502C95.0741 78.8896 95.6915 78.7853 96.3192 79.2134Z" fill="#FEEDE1" fill-opacity="0.8"/>
<path fill-rule="evenodd" clip-rule="evenodd" d="M425.841 136.831C425.801 137.381 425.761 137.93 425.721 138.477C425.761 137.927 425.801 137.379 425.841 136.831Z" fill="#FEEDE1" fill-opacity="0.8"/>
<path fill-rule="evenodd" clip-rule="evenodd" d="M408.859 69.3945C408.907 68.8937 408.954 68.393 409.002 67.895C408.954 68.3967 408.907 68.8956 408.859 69.3945Z" fill="#FEEDE1" fill-opacity="0.8"/>
<path fill-rule="evenodd" clip-rule="evenodd" d="M403.994 67.8256C403.946 68.3688 403.897 68.9125 403.849 69.4539C403.897 68.9097 403.946 68.3674 403.994 67.8256Z" fill="#FEEDE1" fill-opacity="0.8"/>
<path fill-rule="evenodd" clip-rule="evenodd" d="M135.018 31.5342C134.388 31.6107 133.758 31.6872 133.128 31.7631C133.758 31.6867 134.388 31.6107 135.018 31.5342Z" fill="#FEEDE1" fill-opacity="0.8"/>
<path fill-rule="evenodd" clip-rule="evenodd" d="M89.5067 79.6456C88.8601 79.7117 88.2135 79.7778 87.5674 79.8439C88.214 79.7778 88.8606 79.7117 89.5067 79.6456Z" fill="#FEEDE1" fill-opacity="0.8"/>
<path fill-rule="evenodd" clip-rule="evenodd" d="M443.836 81.2381C443.875 80.7326 443.914 80.2267 443.954 79.724C443.914 80.23 443.875 80.734 443.836 81.2381Z" fill="#FEEDE1" fill-opacity="0.8"/>
<path fill-rule="evenodd" clip-rule="evenodd" d="M68.2842 164.663C68.6566 164.669 69.0285 164.674 69.3952 164.679C69.0214 164.674 68.6528 164.669 68.2842 164.663Z" fill="#FEEDE1" fill-opacity="0.8"/>
<path fill-rule="evenodd" clip-rule="evenodd" d="M404.013 227.052C403.976 227.611 403.939 228.171 403.902 228.729C403.939 228.169 403.977 227.61 404.013 227.052Z" fill="#FEEDE1" fill-opacity="0.8"/>
<path fill-rule="evenodd" clip-rule="evenodd" d="M442 118.118C441.985 117.579 441.97 117.04 441.955 116.502C441.971 117.042 441.985 117.58 442 118.118Z" fill="#FEEDE1" fill-opacity="0.8"/>
<path fill-rule="evenodd" clip-rule="evenodd" d="M150.878 30.2579C150.304 30.2579 149.729 30.2583 149.156 30.2583C149.73 29.8638 150.304 29.8737 150.878 30.2579Z" fill="#FEEDE1" fill-opacity="0.8"/>
<path fill-rule="evenodd" clip-rule="evenodd" d="M304.229 157.23C303.6 157.246 302.97 157.263 302.342 157.279C302.96 156.842 303.59 156.831 304.229 157.23Z" fill="#FEEDE1" fill-opacity="0.8"/>
<path fill-rule="evenodd" clip-rule="evenodd" d="M359.209 303.224C359.582 303.232 359.955 303.24 360.324 303.249C359.949 303.242 359.579 303.233 359.209 303.224Z" fill="#FEEDE1" fill-opacity="0.8"/>
<path fill-rule="evenodd" clip-rule="evenodd" d="M373.254 303.88C373.626 303.867 373.999 303.853 374.366 303.841C373.992 303.854 373.623 303.867 373.254 303.88Z" fill="#FEEDE1" fill-opacity="0.8"/>
<path fill-rule="evenodd" clip-rule="evenodd" d="M153.457 304.139C153.846 304.149 154.234 304.159 154.617 304.168C154.227 304.158 153.842 304.149 153.457 304.139Z" fill="#FEEDE1" fill-opacity="0.8"/>
<path fill-rule="evenodd" clip-rule="evenodd" d="M477.047 245.503C476.992 244.97 476.936 244.436 476.881 243.905C476.936 244.439 476.992 244.971 477.047 245.503Z" fill="#FEEDE1" fill-opacity="0.8"/>
<path fill-rule="evenodd" clip-rule="evenodd" d="M426.317 155.592C426.362 156.101 426.405 156.609 426.449 157.114C426.405 156.605 426.361 156.099 426.317 155.592Z" fill="#FEEDE1" fill-opacity="0.8"/>
<path fill-rule="evenodd" clip-rule="evenodd" d="M445.839 146.865C445.779 146.326 445.718 145.787 445.658 145.25C445.719 145.789 445.779 146.327 445.839 146.865Z" fill="#FEEDE1" fill-opacity="0.8"/>
<path fill-rule="evenodd" clip-rule="evenodd" d="M156.607 304.46C156.999 304.454 157.391 304.448 157.779 304.443C157.385 304.449 156.996 304.455 156.607 304.46Z" fill="#FEEDE1" fill-opacity="0.8"/>
<path fill-rule="evenodd" clip-rule="evenodd" d="M299.27 304.503C299.651 304.485 300.031 304.468 300.408 304.451C300.026 304.469 299.648 304.486 299.27 304.503Z" fill="#FEEDE1" fill-opacity="0.8"/>
<path fill-rule="evenodd" clip-rule="evenodd" d="M442.653 107.507C442.636 106.961 442.619 106.415 442.602 105.87C442.619 106.417 442.636 106.962 442.653 107.507Z" fill="#FEEDE1" fill-opacity="0.8"/>
<path fill-rule="evenodd" clip-rule="evenodd" d="M119.461 304.817C119.843 304.814 120.225 304.811 120.602 304.809C120.218 304.812 119.84 304.815 119.461 304.817Z" fill="#FEEDE1" fill-opacity="0.8"/>
<path fill-rule="evenodd" clip-rule="evenodd" d="M442.493 304.811C442.885 304.815 443.278 304.819 443.666 304.824C443.271 304.82 442.882 304.816 442.493 304.811Z" fill="#FEEDE1" fill-opacity="0.8"/>
<path fill-rule="evenodd" clip-rule="evenodd" d="M450.976 304.765C451.355 304.792 451.734 304.819 452.109 304.845C451.728 304.818 451.352 304.792 450.976 304.765Z" fill="#FEEDE1" fill-opacity="0.8"/>
<path fill-rule="evenodd" clip-rule="evenodd" d="M454.404 304.758C454.79 304.769 455.176 304.781 455.557 304.79C455.17 304.778 454.787 304.768 454.404 304.758Z" fill="#FEEDE1" fill-opacity="0.8"/>
<path fill-rule="evenodd" clip-rule="evenodd" d="M471.996 149.03C471.97 148.493 471.945 147.955 471.92 147.42C471.946 147.958 471.97 148.494 471.996 149.03Z" fill="#FEEDE1" fill-opacity="0.8"/>
<path fill-rule="evenodd" clip-rule="evenodd" d="M212.724 297.718C213.898 297.657 215.074 297.595 216.249 297.534C215.074 297.595 213.898 297.656 212.724 297.718Z" fill="#FEEDE1" fill-opacity="0.8"/>
<path fill-rule="evenodd" clip-rule="evenodd" d="M141.838 102.415C142.858 102.504 143.878 102.593 144.897 102.68C143.877 102.592 142.858 102.503 141.838 102.415Z" fill="#FEEDE1" fill-opacity="0.8"/>
<path fill-rule="evenodd" clip-rule="evenodd" d="M429.813 146.758C429.845 147.731 429.878 148.705 429.909 149.675C429.877 148.701 429.845 147.73 429.813 146.758Z" fill="#FEEDE1" fill-opacity="0.8"/>
<path fill-rule="evenodd" clip-rule="evenodd" d="M450.862 299.382C451.926 299.447 452.991 299.511 454.055 299.575C452.984 299.624 451.897 299.929 450.862 299.382Z" fill="#FEEDE1" fill-opacity="0.8"/>
<path fill-rule="evenodd" clip-rule="evenodd" d="M444.562 184.264C444.57 183.336 444.578 182.407 444.585 181.481C444.577 182.41 444.57 183.337 444.562 184.264Z" fill="#FEEDE1" fill-opacity="0.8"/>
<path fill-rule="evenodd" clip-rule="evenodd" d="M441.837 213.432C442.771 213.445 443.706 213.458 444.64 213.47C443.705 213.457 442.771 213.445 441.837 213.432Z" fill="#FEEDE1" fill-opacity="0.8"/>
<path fill-rule="evenodd" clip-rule="evenodd" d="M206.658 197.111C206.634 197.819 206.611 198.526 206.589 199.23C206.612 198.522 206.635 197.817 206.658 197.111Z" fill="#FEEDE1" fill-opacity="0.8"/>
<path fill-rule="evenodd" clip-rule="evenodd" d="M457.384 167.153C457.346 167.857 457.308 168.56 457.271 169.261C457.309 168.556 457.347 167.854 457.384 167.153Z" fill="#FEEDE1" fill-opacity="0.8"/>
<path fill-rule="evenodd" clip-rule="evenodd" d="M437.453 296.249C438.133 296.203 438.812 296.157 439.49 296.113C438.979 296.523 438.465 296.557 437.453 296.249Z" fill="#FEEDE1" fill-opacity="0.8"/>
<path fill-rule="evenodd" clip-rule="evenodd" d="M432.905 204.214C432.952 204.973 432.999 205.732 433.045 206.489C432.998 205.73 432.952 204.972 432.905 204.214Z" fill="#FEEDE1" fill-opacity="0.8"/>
<path fill-rule="evenodd" clip-rule="evenodd" d="M178.787 84.425C178.794 83.692 178.801 82.959 178.809 82.2289C178.802 82.9628 178.795 83.6939 178.787 84.425Z" fill="#FEEDE1" fill-opacity="0.8"/>
<path fill-rule="evenodd" clip-rule="evenodd" d="M433.728 213.585L436.261 213.53C435.425 213.934 434.581 213.948 433.728 213.585Z" fill="#FEEDE1" fill-opacity="0.8"/>
<path fill-rule="evenodd" clip-rule="evenodd" d="M457.098 218.995C456.501 219 455.904 219.005 455.311 219.011C455.909 219.006 456.504 219.001 457.098 218.995Z" fill="#FEEDE1" fill-opacity="0.8"/>
<path fill-rule="evenodd" clip-rule="evenodd" d="M238.351 296.541C239.178 296.551 240.005 296.562 240.831 296.573C239.998 296.99 239.171 297.049 238.351 296.541Z" fill="#FEEDE1" fill-opacity="0.8"/>
<path fill-rule="evenodd" clip-rule="evenodd" d="M82.584 298.977C83.4232 298.902 84.2628 298.827 85.102 298.752C84.2628 298.827 83.4232 298.902 82.584 298.977Z" fill="#FEEDE1" fill-opacity="0.8"/>
<path fill-rule="evenodd" clip-rule="evenodd" d="M430.105 153.009C430.146 153.771 430.187 154.532 430.228 155.292C430.187 154.529 430.146 153.769 430.105 153.009Z" fill="#FEEDE1" fill-opacity="0.8"/>
<path fill-rule="evenodd" clip-rule="evenodd" d="M162.238 104.204C162.945 103.855 163.658 103.796 164.378 104.166C163.664 104.179 162.951 104.191 162.238 104.204Z" fill="#FEEDE1" fill-opacity="0.8"/>
<path fill-rule="evenodd" clip-rule="evenodd" d="M406.962 161.805C407.02 162.447 407.079 163.09 407.137 163.731C407.078 163.087 407.02 162.446 406.962 161.805Z" fill="#FEEDE1" fill-opacity="0.8"/>
<path fill-rule="evenodd" clip-rule="evenodd" d="M466.728 146.812C466.364 146.183 466.377 145.558 466.746 144.938C466.74 145.563 466.734 146.188 466.728 146.812Z" fill="#FEEDE1" fill-opacity="0.8"/>
<path fill-rule="evenodd" clip-rule="evenodd" d="M430.22 124.987C430.22 125.623 430.22 126.259 430.22 126.893C430.22 126.256 430.22 125.622 430.22 124.987Z" fill="#FEEDE1" fill-opacity="0.8"/>
<path fill-rule="evenodd" clip-rule="evenodd" d="M455.581 213.129C456.309 212.905 457.038 212.59 457.763 213.136C457.035 213.134 456.309 213.131 455.581 213.129Z" fill="#FEEDE1" fill-opacity="0.8"/>
<path fill-rule="evenodd" clip-rule="evenodd" d="M220.252 297.43C220.985 297.362 221.718 297.294 222.45 297.225C221.718 297.294 220.985 297.362 220.252 297.43Z" fill="#FEEDE1" fill-opacity="0.8"/>
<path fill-rule="evenodd" clip-rule="evenodd" d="M119.795 297.432C120.466 297.137 121.136 296.982 121.797 297.454C121.129 297.446 120.462 297.439 119.795 297.432Z" fill="#FEEDE1" fill-opacity="0.8"/>
<path fill-rule="evenodd" clip-rule="evenodd" d="M257.075 296.485C257.793 296.171 258.509 295.999 259.217 296.507C258.503 296.499 257.789 296.492 257.075 296.485Z" fill="#FEEDE1" fill-opacity="0.8"/>
<path fill-rule="evenodd" clip-rule="evenodd" d="M97.3162 203.635C97.37 204.283 97.4243 204.931 97.4776 205.577C97.4233 204.929 97.3695 204.282 97.3162 203.635Z" fill="#FEEDE1" fill-opacity="0.8"/>
<path fill-rule="evenodd" clip-rule="evenodd" d="M263.936 166.309C264.642 166.053 265.346 165.919 266.039 166.348C265.338 166.334 264.637 166.322 263.936 166.309Z" fill="#FEEDE1" fill-opacity="0.8"/>
<path fill-rule="evenodd" clip-rule="evenodd" d="M430.093 185.599C430.132 186.233 430.171 186.866 430.21 187.498C430.171 186.864 430.132 186.232 430.093 185.599Z" fill="#FEEDE1" fill-opacity="0.8"/>
<path fill-rule="evenodd" clip-rule="evenodd" d="M96.8602 128.447C96.8017 128.957 96.7432 129.468 96.6852 129.975C96.7437 129.464 96.8017 128.955 96.8602 128.447Z" fill="#FEEDE1" fill-opacity="0.8"/>
<path fill-rule="evenodd" clip-rule="evenodd" d="M55.9329 276.407C55.8965 276.904 55.8607 277.4 55.8248 277.894C55.8621 277.397 55.8975 276.902 55.9329 276.407Z" fill="#FEEDE1" fill-opacity="0.8"/>
<path fill-rule="evenodd" clip-rule="evenodd" d="M444.876 188.951C444.836 188.438 444.796 187.924 444.757 187.413C444.796 187.928 444.836 188.44 444.876 188.951Z" fill="#FEEDE1" fill-opacity="0.8"/>
<path fill-rule="evenodd" clip-rule="evenodd" d="M393.453 295.526C394.082 295.53 394.711 295.535 395.34 295.539C394.711 295.535 394.082 295.53 393.453 295.526Z" fill="#FEEDE1" fill-opacity="0.8"/>
<path fill-rule="evenodd" clip-rule="evenodd" d="M206.421 201.481C206.538 201.855 206.656 202.229 206.773 202.603C205.988 202.793 205.871 202.419 206.421 201.481Z" fill="#FEEDE1" fill-opacity="0.8"/>
<path fill-rule="evenodd" clip-rule="evenodd" d="M253.595 165.465C254.234 165.462 254.873 165.459 255.512 165.457C254.874 165.76 254.235 165.968 253.595 165.465Z" fill="#FEEDE1" fill-opacity="0.8"/>
<path fill-rule="evenodd" clip-rule="evenodd" d="M97.6748 206.703C97.6965 207.269 97.7182 207.836 97.739 208.401C97.7168 207.834 97.6956 207.269 97.6748 206.703Z" fill="#FEEDE1" fill-opacity="0.8"/>
<path fill-rule="evenodd" clip-rule="evenodd" d="M104.435 298.051C105.052 298.051 105.669 298.05 106.285 298.05C105.668 298.05 105.052 298.051 104.435 298.051Z" fill="#FEEDE1" fill-opacity="0.8"/>
<path fill-rule="evenodd" clip-rule="evenodd" d="M408.514 212.675C408.537 213.197 408.56 213.718 408.583 214.237C408.561 213.714 408.537 213.195 408.514 212.675Z" fill="#FEEDE1" fill-opacity="0.8"/>
<path fill-rule="evenodd" clip-rule="evenodd" d="M91.3396 298.687C91.9461 298.285 92.554 298.32 93.1629 298.681C92.555 298.683 91.9471 298.685 91.3396 298.687Z" fill="#FEEDE1" fill-opacity="0.8"/>
<path fill-rule="evenodd" clip-rule="evenodd" d="M107.309 121.161C107.342 121.693 107.375 122.226 107.409 122.755C107.376 122.222 107.343 121.691 107.309 121.161Z" fill="#FEEDE1" fill-opacity="0.8"/>
<path fill-rule="evenodd" clip-rule="evenodd" d="M88.1844 298.742C88.8149 298.744 89.4455 298.747 90.0756 298.75C89.4431 299.18 88.813 299.201 88.1844 298.742Z" fill="#FEEDE1" fill-opacity="0.8"/>
<path fill-rule="evenodd" clip-rule="evenodd" d="M437.347 112.804C437.353 112.263 437.357 111.722 437.362 111.183C437.357 111.724 437.352 112.264 437.347 112.804Z" fill="#FEEDE1" fill-opacity="0.8"/>
<path fill-rule="evenodd" clip-rule="evenodd" d="M147.86 103.345C148.464 103.424 149.067 103.503 149.669 103.581C149.066 103.502 148.463 103.424 147.86 103.345Z" fill="#FEEDE1" fill-opacity="0.8"/>
<path fill-rule="evenodd" clip-rule="evenodd" d="M94.632 150.023C94.6401 150.528 94.6481 151.033 94.6575 151.536C94.6495 151.03 94.641 150.527 94.632 150.023Z" fill="#FEEDE1" fill-opacity="0.8"/>
<path fill-rule="evenodd" clip-rule="evenodd" d="M441.407 149.95C441.374 149.436 441.341 148.922 441.308 148.409C441.341 148.925 441.374 149.438 441.407 149.95Z" fill="#FEEDE1" fill-opacity="0.8"/>
<path fill-rule="evenodd" clip-rule="evenodd" d="M300.725 298.139C301.469 298.206 302.214 298.274 302.957 298.341C302.213 298.273 301.469 298.206 300.725 298.139Z" fill="#FEEDE1" fill-opacity="0.8"/>
<path fill-rule="evenodd" clip-rule="evenodd" d="M298.238 278.871C297.836 278.878 297.434 278.884 297.035 278.892C297.439 278.887 297.839 278.879 298.238 278.871Z" fill="#FEEDE1" fill-opacity="0.8"/>
<path fill-rule="evenodd" clip-rule="evenodd" d="M298.271 297.844C298.895 297.906 299.52 297.967 300.144 298.029C299.519 297.967 298.895 297.906 298.271 297.844Z" fill="#FEEDE1" fill-opacity="0.8"/>
<path fill-rule="evenodd" clip-rule="evenodd" d="M185.932 255.806C186.744 260.395 179.612 264.884 179.046 258.36C178.839 255.974 180.435 254.296 182.221 252.838C184.757 250.768 186.173 252.75 185.932 255.806Z" fill="#FEEDE1" fill-opacity="0.8"/>
<path fill-rule="evenodd" clip-rule="evenodd" d="M107.311 199.812C108.992 200.499 121.829 204.682 115.161 206.787C113.396 207.343 110.728 207.427 109.197 206.445C107.357 205.264 105.5 201.78 107.311 199.812Z" fill="#FEEDE1" fill-opacity="0.8"/>
<path fill-rule="evenodd" clip-rule="evenodd" d="M110.473 137.66C114.83 137.154 118.845 144.311 113.473 144.079C109.563 143.909 104.304 137.66 110.473 137.66Z" fill="#FEEDE1" fill-opacity="0.8"/>
<path fill-rule="evenodd" clip-rule="evenodd" d="M126.06 155.207C129.699 158.382 122.954 165.486 120.277 162.737C118.91 161.332 120.171 158.306 121.299 157.131C122.457 155.925 124.518 155.698 126.06 155.207Z" fill="#FEEDE1" fill-opacity="0.8"/>
<path fill-rule="evenodd" clip-rule="evenodd" d="M136.891 237.505C134.743 237.847 125.297 240.933 127.267 235.327C128.018 233.189 130.114 233.823 132.03 233.921C135.117 234.079 136.891 233.931 136.891 237.505Z" fill="#FEEDE1" fill-opacity="0.8"/>
<path fill-rule="evenodd" clip-rule="evenodd" d="M130.669 251.946C133.884 253.667 129.184 263.294 126.518 261.246C122.821 258.403 127.878 252.811 130.669 251.946Z" fill="#FEEDE1" fill-opacity="0.8"/>
<path fill-rule="evenodd" clip-rule="evenodd" d="M144.695 244.207C146.258 243.569 153.629 250.659 150.823 252.631C149.385 253.642 146.66 251.909 145.793 250.864C144.168 248.905 144.021 246.487 144.695 244.207Z" fill="#FEEDE1" fill-opacity="0.8"/>
<path fill-rule="evenodd" clip-rule="evenodd" d="M102.166 186.256C103.764 186.518 106.523 186.601 106.627 188.847C106.717 190.821 104.243 191.46 102.501 191.615C100.693 191.775 98.3001 191.265 98.2657 188.993C98.2293 186.541 102.109 186.688 102.166 186.256Z" fill="#FEEDE1" fill-opacity="0.8"/>
<path fill-rule="evenodd" clip-rule="evenodd" d="M141.576 283.979C143.278 285.013 151.217 288.733 147.814 291.42C146.54 292.426 142.68 290.349 141.811 289.293C140.774 288.033 139.761 285.08 141.576 283.979Z" fill="#FEEDE1" fill-opacity="0.8"/>
<path fill-rule="evenodd" clip-rule="evenodd" d="M163.645 256.985C163.399 252.879 170.327 251.245 168.89 257.073C168.485 258.716 168.094 261.211 166.062 261.306C163.66 261.419 163.574 258.578 163.645 256.985Z" fill="#FEEDE1" fill-opacity="0.8"/>
<path fill-rule="evenodd" clip-rule="evenodd" d="M142.245 185.579C142.293 188.694 136.325 191.441 136.278 186.504C136.237 182.092 142.468 180.8 142.245 185.579Z" fill="#FEEDE1" fill-opacity="0.8"/>
<path fill-rule="evenodd" clip-rule="evenodd" d="M138.303 169.356C139.773 169.83 141.728 170.074 141.857 171.942C141.994 173.92 140.158 174.8 138.505 174.689C137.149 174.598 135.143 173.595 134.897 172.124C134.536 169.965 136.643 169.824 138.303 169.356Z" fill="#FEEDE1" fill-opacity="0.8"/>
<path fill-rule="evenodd" clip-rule="evenodd" d="M110.955 226.386C110.93 223.816 116.081 220.727 117.03 223.709C117.333 224.664 114.906 228.943 114.098 229.264C111.961 230.112 111.663 228.135 110.955 226.386Z" fill="#FEEDE1" fill-opacity="0.8"/>
<path fill-rule="evenodd" clip-rule="evenodd" d="M153.168 269.168C151.427 270.726 146.206 275.102 146.596 269.227C146.845 265.474 153.627 265.67 153.168 269.168Z" fill="#FEEDE1" fill-opacity="0.8"/>
<path fill-rule="evenodd" clip-rule="evenodd" d="M238.237 285.959C238.808 283.489 246.977 287.774 244.251 290.895C243.336 291.942 240.943 290.994 240.023 290.374C238.203 289.145 238.163 288.011 238.237 285.959Z" fill="#FEEDE1" fill-opacity="0.8"/>
<path fill-rule="evenodd" clip-rule="evenodd" d="M192.721 233.08C193.04 231.979 193.394 230.032 194.445 229.329C196.346 228.057 198.001 229.976 198.001 231.997C198.002 235.768 193.709 236.957 192.721 233.08Z" fill="#FEEDE1" fill-opacity="0.8"/>
<path fill-rule="evenodd" clip-rule="evenodd" d="M172.476 277.171C174.597 277.658 179.32 282.813 176.581 284.917C173.945 286.941 170.439 278.711 172.476 277.171Z" fill="#FEEDE1" fill-opacity="0.8"/>
<path fill-rule="evenodd" clip-rule="evenodd" d="M174.495 238.145C177.222 238.362 180.97 242.779 176.731 243.48C173.416 244.03 169.56 239.226 174.495 238.145Z" fill="#FEEDE1" fill-opacity="0.8"/>
<path fill-rule="evenodd" clip-rule="evenodd" d="M199.184 258.467C199.868 256.163 206.632 258.631 206.252 261.168C206.05 262.516 203.284 262.833 201.831 262.477C199.691 261.951 199.135 260.548 199.184 258.467Z" fill="#FEEDE1" fill-opacity="0.8"/>
<path fill-rule="evenodd" clip-rule="evenodd" d="M119.46 129.803C119.509 126.825 125.232 125.611 125.651 128.612C126.03 131.324 119.388 134.209 119.46 129.803Z" fill="#FEEDE1" fill-opacity="0.8"/>
<path fill-rule="evenodd" clip-rule="evenodd" d="M197.294 289.154C197.706 287.657 197.884 285.854 199.754 285.657C201.896 285.431 201.833 287.073 201.581 288.775C200.896 293.406 198.28 293.637 197.294 289.154Z" fill="#FEEDE1" fill-opacity="0.8"/>
<path fill-rule="evenodd" clip-rule="evenodd" d="M106.921 165.237C103.937 165.91 98.4732 160.164 101.813 158.931C104.166 158.061 106.921 163.503 106.921 165.237Z" fill="#FEEDE1" fill-opacity="0.8"/>
<path fill-rule="evenodd" clip-rule="evenodd" d="M144.972 209.869C143.454 210.584 143.104 211.018 141.938 209.844C140.922 208.822 140.967 205.975 141.839 204.913C145.178 200.842 145.099 208.222 144.972 209.869Z" fill="#FEEDE1" fill-opacity="0.8"/>
<path fill-rule="evenodd" clip-rule="evenodd" d="M157.36 201.613C158.944 201.815 163.649 206.278 161.199 208.052C158.197 210.225 156.498 203.417 157.36 201.613Z" fill="#FEEDE1" fill-opacity="0.8"/>
<path fill-rule="evenodd" clip-rule="evenodd" d="M191.62 202.789C190.469 207.221 187.596 204.238 187.759 200.885C188.02 195.513 190.997 200.191 191.62 202.789Z" fill="#FEEDE1" fill-opacity="0.8"/>
<path fill-rule="evenodd" clip-rule="evenodd" d="M209.089 273.975C211.036 274.781 213.679 282.225 210.898 282.624C207.774 283.072 208.814 275.525 209.089 273.975Z" fill="#FEEDE1" fill-opacity="0.8"/>
<path fill-rule="evenodd" clip-rule="evenodd" d="M184.771 269.793C186.999 269.041 187.816 273.741 186.521 274.614C183.671 276.535 184.272 270.902 184.771 269.793Z" fill="#FEEDE1" fill-opacity="0.8"/>
<path fill-rule="evenodd" clip-rule="evenodd" d="M163.645 256.985C163.616 257.609 163.589 258.233 163.559 258.853C163.587 258.228 163.616 257.607 163.645 256.985Z" fill="#FEEDE1" fill-opacity="0.8"/>
<path fill-rule="evenodd" clip-rule="evenodd" d="M238.237 285.959C238.213 286.599 238.19 287.239 238.166 287.875C238.188 287.235 238.212 286.597 238.237 285.959Z" fill="#FEEDE1" fill-opacity="0.8"/>
<path fill-rule="evenodd" clip-rule="evenodd" d="M199.184 258.467C199.172 259.009 199.159 259.552 199.145 260.092C199.157 259.547 199.171 259.007 199.184 258.467Z" fill="#FEEDE1" fill-opacity="0.8"/>
<path fill-rule="evenodd" clip-rule="evenodd" d="M445.648 249.126C450.268 248.978 455.421 247.239 459.961 247.792C461.211 247.944 464.087 248.259 462.085 250.113C461.128 250.999 456.543 250.541 455.156 250.835C446.674 252.631 437.045 253.789 428.348 253.639C424.277 253.569 420.176 253.243 416.106 253.028C412.04 252.813 411.64 251.16 416.216 250.635C420.968 250.089 425.844 250.292 430.62 250.286C435.641 250.279 440.637 249.461 445.648 249.126Z" fill="#FEEDE1" fill-opacity="0.8"/>
<path fill-rule="evenodd" clip-rule="evenodd" d="M455.79 237.996C455.346 239.262 454.955 242.167 453.251 242.358C450.865 242.624 450.47 238.527 450.558 237.029C450.665 235.22 451.315 232.215 453.563 232.842C455.462 233.371 455.652 236.548 455.79 237.996Z" fill="#FEEDE1" fill-opacity="0.8"/>
<path fill-rule="evenodd" clip-rule="evenodd" d="M441.343 237.069C441.692 235.713 441.863 232.657 443.78 232.553C445.923 232.437 446.535 235.622 446.521 237.148C446.507 238.596 445.971 241.332 444.265 241.667C441.952 242.12 441.745 238.618 441.343 237.069Z" fill="#FEEDE1" fill-opacity="0.8"/>
<path fill-rule="evenodd" clip-rule="evenodd" d="M417.284 239.5C416.589 241.13 416.13 243.374 413.982 242.263C412.32 241.404 412.089 237.939 412.402 236.353C412.727 234.709 413.414 232.824 415.303 233.563C417.48 234.416 417.261 237.706 417.284 239.5Z" fill="#FEEDE1" fill-opacity="0.8"/>
<path fill-rule="evenodd" clip-rule="evenodd" d="M435.504 237.996C433.457 244.204 429.721 240.003 431.14 235.369C432.623 230.524 435.316 235.229 435.504 237.996Z" fill="#FEEDE1" fill-opacity="0.8"/>
<path fill-rule="evenodd" clip-rule="evenodd" d="M425.527 238.303C424.958 239.396 424.353 241.754 422.82 241.506C420.94 241.201 420.88 237.584 421.086 236.237C421.266 235.058 421.796 233.093 423.369 233.119C425.642 233.155 425.489 236.888 425.527 238.303Z" fill="#FEEDE1" fill-opacity="0.8"/>
<path fill-rule="evenodd" clip-rule="evenodd" d="M466.377 239.495C464.853 242.915 462.756 239.969 463.427 237.539C464.422 233.937 466.291 237.129 466.377 239.495Z" fill="#FEEDE1" fill-opacity="0.8"/>
<path fill-rule="evenodd" clip-rule="evenodd" d="M429.041 250.29C427.376 250.284 425.711 250.277 424.046 250.271C425.712 249.957 427.378 249.835 429.041 250.29Z" fill="#FEEDE1" fill-opacity="0.8"/>
<path fill-rule="evenodd" clip-rule="evenodd" d="M462.127 247.778C460.683 247.787 459.239 247.796 457.796 247.806C459.237 247.373 460.681 247.364 462.127 247.778Z" fill="#FEEDE1" fill-opacity="0.8"/>
<path fill-rule="evenodd" clip-rule="evenodd" d="M445.648 249.126C444.492 249.203 443.337 249.281 442.181 249.358C443.337 249.281 444.493 249.203 445.648 249.126Z" fill="#FEEDE1" fill-opacity="0.8"/>
<path fill-rule="evenodd" clip-rule="evenodd" d="M417.284 239.5C417.273 238.671 417.262 237.841 417.252 237.013C417.679 237.838 417.65 238.667 417.284 239.5Z" fill="#FEEDE1" fill-opacity="0.8"/>
<path fill-rule="evenodd" clip-rule="evenodd" d="M426.344 253.622C427.014 253.628 427.684 253.634 428.349 253.64C427.676 253.634 427.01 253.628 426.344 253.622Z" fill="#FEEDE1" fill-opacity="0.8"/>
<path fill-rule="evenodd" clip-rule="evenodd" d="M415.09 253.028C415.769 253.028 416.448 253.028 417.122 253.028C416.44 253.028 415.765 253.028 415.09 253.028Z" fill="#FEEDE1" fill-opacity="0.8"/>
<path fill-rule="evenodd" clip-rule="evenodd" d="M420.655 250.362C419.711 250.439 418.767 250.517 417.823 250.594C418.767 250.517 419.711 250.439 420.655 250.362Z" fill="#FEEDE1" fill-opacity="0.8"/>
<path fill-rule="evenodd" clip-rule="evenodd" d="M433.416 250.28C432.484 250.281 431.552 250.283 430.62 250.285C431.552 249.893 432.484 249.881 433.416 250.28Z" fill="#FEEDE1" fill-opacity="0.8"/>
<path fill-rule="evenodd" clip-rule="evenodd" d="M425.525 238.303C425.502 237.438 425.479 236.574 425.458 235.71C425.481 236.575 425.503 237.439 425.525 238.303Z" fill="#FEEDE1" fill-opacity="0.8"/>
<path fill-rule="evenodd" clip-rule="evenodd" d="M412.404 236.353C412.398 237.196 412.393 238.04 412.387 238.88C412.392 238.035 412.397 237.194 412.404 236.353Z" fill="#FEEDE1" fill-opacity="0.8"/>
<path fill-rule="evenodd" clip-rule="evenodd" d="M450.945 248.812C450.121 248.887 449.298 248.961 448.474 249.035C449.298 248.961 450.122 248.887 450.945 248.812Z" fill="#FEEDE1" fill-opacity="0.8"/>
<path fill-rule="evenodd" clip-rule="evenodd" d="M466.377 239.495C466.35 238.758 466.323 238.021 466.297 237.285C466.324 238.023 466.35 238.758 466.377 239.495Z" fill="#FEEDE1" fill-opacity="0.8"/>
<path fill-rule="evenodd" clip-rule="evenodd" d="M431.323 253.646C431.897 253.635 432.47 253.625 433.038 253.615C432.463 253.626 431.893 253.636 431.323 253.646Z" fill="#FEEDE1" fill-opacity="0.8"/>
<path fill-rule="evenodd" clip-rule="evenodd" d="M455.79 237.996C455.74 237.466 455.689 236.936 455.639 236.408C455.69 236.939 455.74 237.467 455.79 237.996Z" fill="#FEEDE1" fill-opacity="0.8"/>
<path fill-rule="evenodd" clip-rule="evenodd" d="M435.504 237.996C435.467 237.452 435.43 236.908 435.393 236.365C435.43 236.91 435.467 237.453 435.504 237.996Z" fill="#FEEDE1" fill-opacity="0.8"/>
<path fill-rule="evenodd" clip-rule="evenodd" d="M139.746 78.2175C137.491 77.6256 137.068 74.4558 137.43 72.5089C137.841 71.5706 138.252 70.6328 138.663 69.6945C138.502 69.3476 138.342 69.0007 138.182 68.6538C138.388 66.7216 137.861 65.8819 140.081 66.6644C144.206 68.1191 144.866 78.0683 139.746 78.2175Z" fill="#FEEDE1" fill-opacity="0.8"/>
<path fill-rule="evenodd" clip-rule="evenodd" d="M173.135 72.0889C174.993 71.9426 178.368 74.1066 176.519 76.2003C175.373 77.4973 171.596 76.8837 170.056 77.1547C168.013 77.5138 165.882 78.0052 166.987 74.9449C167.855 72.5416 170.955 72.0262 173.135 72.0889Z" fill="#FEEDE1" fill-opacity="0.8"/>
<path fill-rule="evenodd" clip-rule="evenodd" d="M171.178 86.4837C169.291 84.97 170.134 78.0759 173.006 79.3162C175.961 80.5929 172.753 85.4887 171.178 86.4837Z" fill="#FEEDE1" fill-opacity="0.8"/>
<path fill-rule="evenodd" clip-rule="evenodd" d="M137.432 72.5089C137.432 73.2343 137.431 73.9602 137.43 74.6824C137.036 73.9555 137.049 73.232 137.432 72.5089Z" fill="#FEEDE1" fill-opacity="0.8"/>
<path fill-rule="evenodd" clip-rule="evenodd" d="M139.746 78.2174C140.131 78.2065 140.516 78.1952 140.896 78.1853C140.509 78.1976 140.128 78.2075 139.746 78.2174Z" fill="#FEEDE1" fill-opacity="0.8"/>
<path fill-rule="evenodd" clip-rule="evenodd" d="M372.801 276.762C372.624 279.898 369.257 277.58 369.496 275.482C369.929 271.675 372.082 275.437 372.801 276.762Z" fill="#FEEDE1" fill-opacity="0.8"/>
<defs>
<linearGradient id="paint0_linear_3520_2480" x1="269" y1="0" x2="269" y2="356" gradientUnits="userSpaceOnUse">
<stop stop-color="#73204F"/>
<stop offset="0.635417" stop-color="#33A34E"/>
<stop offset="1" stop-color="#FF931E"/>
</linearGradient>
</defs>
</svg>
