<svg width="142" height="80" viewBox="0 0 142 80" fill="none" xmlns="http://www.w3.org/2000/svg">
<g clip-path="url(#clip0_3553_32)">
<path fill-rule="evenodd" clip-rule="evenodd" d="M2.52576 17.7008C2.91447 20.557 3.06526 21.4158 3.18311 21.4458C3.30547 21.4768 3.30732 21.4904 3.19232 21.5135C3.09009 21.534 3.08507 21.8105 3.175 22.4713C3.28796 23.3013 3.32451 23.3971 3.51833 23.3707C3.74243 23.3403 4.80075 22.864 5.62006 22.4249L6.08802 22.1741L5.89912 20.7861L5.71024 19.3983L5.40667 19.8569C5.11729 20.294 3.57515 21.4575 3.43084 21.3476C3.39303 21.319 3.62167 21.1396 3.93892 20.949C4.69344 20.4956 5.33726 19.9042 5.5403 19.4777C5.67286 19.1991 5.66775 18.8074 5.51303 17.3755C5.40848 16.4076 5.33641 15.5473 5.35291 15.4637C5.37638 15.3453 6.49668 15.1604 10.4323 14.6255L15.4816 13.9392L15.3631 13.0683L15.2445 12.1974L8.63296 13.0961L2.02138 13.9947L2.52576 17.7008ZM17.1799 13.3972L17.3754 14.8334L17.8201 14.8463C18.0648 14.8534 18.4713 14.8317 18.7236 14.7981L19.1823 14.7371L18.8127 15.2358C18.5793 15.5506 18.4582 15.8451 18.484 16.0348C18.5064 16.1999 18.4544 16.4118 18.3681 16.5057C18.2777 16.6042 18.2529 16.7637 18.3094 16.8829C18.3873 17.0476 18.3469 17.0977 18.1093 17.13C17.8646 17.1632 17.819 17.2252 17.8534 17.4779L17.8953 17.7855L22.9023 17.0324C25.6562 16.6182 28.7368 16.1098 29.7482 15.9025C30.7596 15.6954 31.7748 15.5373 32.0041 15.5513L32.421 15.5767L31.9689 15.7265C31.7202 15.8088 30.6115 16.0608 29.5051 16.2864C28.3987 16.5118 27.2611 16.7471 26.9772 16.809C26.6932 16.871 25.2303 17.1568 23.7262 17.444L20.9915 17.9664L21.0497 18.3937C21.1046 18.7978 21.1319 18.8215 21.5521 18.8306C22.1111 18.8429 25.1463 18.6399 27.6692 18.4216C30.8716 18.1446 45.2301 16.1905 45.8278 15.9503C46.4738 15.6908 46.9923 15.0614 47.0778 14.4329C47.1138 14.1686 47.0324 13.1364 46.897 12.1391C46.6695 10.4622 46.629 10.3046 46.36 10.0439L46.0692 9.76215L46.2604 9.27787C46.4122 8.89393 46.4205 8.71729 46.3008 8.42479L46.1498 8.05586L41.7906 8.61739L37.4314 9.17891L37.4412 9.79988C37.4467 10.1414 37.5114 10.8676 37.5853 11.4138C37.6684 12.03 37.6737 12.4667 37.5991 12.565C37.4317 12.7854 37.0072 12.8226 36.8028 12.6348C36.6324 12.4782 36.6094 12.2622 36.5329 10.1022L36.5047 9.3077L35.5021 9.44398L34.4993 9.58028L34.5439 9.90784C34.6169 10.4443 34.1676 11.5361 33.6714 12.0277C33.1286 12.5656 32.4664 12.7161 32.0474 12.3971C31.9024 12.2867 31.7745 12.1311 31.7633 12.0514C31.752 11.9717 31.6421 11.7639 31.5191 11.5899C31.3182 11.3058 31.3074 11.2254 31.4129 10.8036C31.594 10.079 31.5463 9.98083 31.0493 10.0551C30.6336 10.1173 30.6051 10.1519 30.3773 10.8699C29.9463 12.2288 28.1658 14.2204 27.2692 14.3463C26.9009 14.398 26.8481 14.2614 27.0539 13.7887C27.2244 13.3972 27.2598 11.9983 27.1251 10.967L27.0758 10.5893L22.0301 11.2751L16.9844 11.9609L17.1799 13.3972ZM28.1027 10.7158C28.0664 11.1696 28.2253 12.5623 28.3118 12.5503C28.4154 12.5359 29.5315 10.8183 29.6573 10.4797C29.7482 10.2352 29.7212 10.2297 28.938 10.3362C28.1883 10.4381 28.1224 10.468 28.1027 10.7158ZM31.9368 10.3501C31.9053 10.9793 32.3483 11.6466 32.7604 11.5906C33.1614 11.5361 33.5656 10.9691 33.6468 10.3466C33.7354 9.66873 33.7482 9.68238 33.1074 9.76947C32.4591 9.85758 32.438 9.91463 32.7686 10.6841C32.8701 10.9203 32.9303 11.1436 32.9024 11.1804C32.8744 11.2172 32.7558 11.0288 32.6389 10.7616L32.4263 10.276L32.4006 10.6343C32.3769 10.9647 32.3656 10.9739 32.2554 10.7528C32.1896 10.6208 32.1513 10.3733 32.1702 10.2026C32.1911 10.0145 32.1561 9.89878 32.0814 9.90893C32.0135 9.91815 31.9485 10.1167 31.9368 10.3501ZM52.7008 7.16295C52.6745 7.19763 51.6563 7.36619 50.4381 7.53745C48.5723 7.79968 48.2165 7.87784 48.1798 8.03397C48.1094 8.33329 48.2497 9.12706 48.4128 9.35265C48.5582 9.55369 48.7393 9.537 53.6051 8.87564L58.6467 8.19037L62.1781 34.1385L65.7096 60.0866L65.485 60.2492C65.1414 60.4983 61.8775 61.1802 56.0757 62.2154L54.2879 62.5343L54.5226 64.4973C54.675 65.7715 54.8082 66.5071 54.9024 66.5936C54.9822 66.6669 55.328 66.757 55.671 66.7939L56.2944 66.8608L55.6753 67.086C55.0836 67.3014 55.128 67.3022 56.683 67.1035L58.3099 66.8956L58.1373 66.0832C58.0423 65.6363 57.9841 65.245 58.008 65.2138C58.0317 65.1824 58.3161 65.1176 58.6399 65.0698C58.9637 65.0219 59.8855 64.8293 60.6884 64.6418C61.4913 64.4543 62.1531 64.3366 62.1591 64.3801C62.165 64.4238 61.7723 64.9436 61.2863 65.5352L60.403 66.6111L63.0086 66.2541L65.6143 65.8971L67.307 63.6956L68.9996 61.4939L66.0428 39.5372C64.4167 27.4609 62.7028 14.9582 62.2344 11.7533L61.3826 5.92626L57.0657 6.51302C54.6915 6.83573 52.7273 7.12825 52.7008 7.16295ZM17.4504 15.2179C17.4826 15.2834 17.5462 15.328 17.5918 15.3169C17.6374 15.3059 17.9357 15.2613 18.2547 15.218C18.5737 15.1746 18.8275 15.0869 18.8188 15.023C18.81 14.9583 18.4905 14.9494 18.0975 15.0028C17.6458 15.0642 17.4128 15.1416 17.4504 15.2179ZM17.7326 16.5898C17.7412 16.6537 17.8006 16.6989 17.8643 16.6902C17.9281 16.6815 17.9732 16.6222 17.9645 16.5583C17.9558 16.4944 17.8965 16.4493 17.8327 16.458C17.7689 16.4666 17.7239 16.526 17.7326 16.5898ZM18.6332 16.7606C18.4572 16.9359 18.4567 16.9574 18.6294 16.9372C18.7375 16.9247 18.8529 16.8539 18.8856 16.78C18.9841 16.5582 18.847 16.5476 18.6332 16.7606ZM17.8851 17.0047C17.9733 17.0269 18.0728 17.0091 18.1061 16.9653C18.1393 16.9215 18.0672 16.9034 17.9456 16.925C17.8112 16.949 17.7875 16.9802 17.8851 17.0047ZM19.4003 18.4272C19.4316 18.6575 19.5256 18.724 19.8905 18.7738C20.1388 18.8078 20.4916 18.8156 20.6745 18.7911C20.9629 18.7525 20.9931 18.7131 20.9016 18.4948C20.8436 18.3564 20.7865 18.1779 20.7748 18.0981C20.7601 17.9984 20.5361 17.9828 20.0575 18.0478C19.396 18.1377 19.3634 18.1566 19.4003 18.4272ZM4.56832 23.3775L3.48577 23.8867L3.61859 24.8626C3.73928 25.7494 3.76962 25.83 3.95107 25.7439C4.06094 25.6918 4.64642 25.4045 5.25229 25.1053L6.35386 24.5614L6.26661 23.6669C6.18199 22.7995 6.17143 22.7739 5.91514 22.8205C5.76976 22.8469 5.16368 23.0975 4.56832 23.3775ZM13.5408 23.5139C12.8183 23.8059 12.447 24.6712 12.3259 26.3455C12.228 27.6981 12.5559 29.8247 13.2497 32.3371C13.8876 34.6471 14.3911 35.5816 15.1235 35.8148C15.6119 35.9704 17.8476 35.6822 21.7657 34.9585C24.4827 34.4565 24.664 34.3804 24.7321 33.7115C24.7542 33.4926 24.51 31.3003 24.189 28.8397C23.7035 25.116 23.6235 24.2646 23.7118 23.7625C23.7701 23.4308 23.7757 23.1305 23.724 23.0951C23.446 22.9055 16.0093 23.0863 14.4547 23.3206C14.0727 23.3782 13.6614 23.4652 13.5408 23.5139ZM4.89776 25.5811L3.84679 26.1053L4.04053 27.7702C4.22937 29.393 4.23966 29.4312 4.44525 29.2822C4.56141 29.1981 4.77072 29.1138 4.91061 29.0947C5.05049 29.0757 5.51489 28.7996 5.94247 28.4813C6.83463 27.8171 6.84936 27.7683 6.63441 26.1888C6.52028 25.3502 6.47039 25.2085 6.26192 25.1307C5.9655 25.0203 6.13304 24.9649 4.89776 25.5811ZM20.9411 24.9746C19.7383 25.3898 17.68 25.9502 16.3915 26.2135L15.2349 26.4497L15.1996 27.2823C15.1625 28.1606 15.5913 30.8856 15.8952 31.7031C15.9832 31.9396 16.2073 32.2322 16.3932 32.3533C16.7166 32.5639 16.8215 32.5612 18.8032 32.2918C19.9427 32.1369 20.9509 31.9686 21.0437 31.9178C21.2823 31.7868 21.3469 31.2693 21.3317 29.6079C21.3166 27.9184 21.517 26.3502 21.8773 25.3399C22.1697 24.5202 22.211 24.5363 20.9411 24.9746ZM5.84092 28.8402C5.23455 29.2493 5.07219 29.4166 5.13254 29.57C5.19075 29.7182 5.14581 29.7726 4.95719 29.7825C4.37089 29.813 4.3005 29.8731 4.35771 30.2934C4.41768 30.7341 4.48916 30.755 5.06609 30.5011C5.30873 30.3942 5.43296 30.3817 5.44401 30.4628C5.47225 30.6703 6.25883 30.3354 6.53578 29.998C6.70482 29.7921 6.78678 29.5289 6.7733 29.2346C6.76199 28.9874 6.76359 28.6641 6.77674 28.5159C6.80607 28.1871 6.81249 28.1848 5.84092 28.8402ZM6.24309 30.692C6.05893 30.7711 5.5941 30.9685 5.21 31.1305L4.51172 31.4251L5.46789 38.4508L6.42406 45.4764L6.89857 45.3328C7.15953 45.2538 7.70222 44.9471 8.10449 44.6511C8.81293 44.13 8.83409 44.0989 8.77563 43.6642L8.71537 43.2153L8.45127 43.4449C8.10795 43.7434 8.07946 43.5341 8.41605 43.186C8.64626 42.9479 8.6632 42.832 8.56886 42.1387C8.48143 41.4964 8.43396 41.375 8.2992 41.449C7.9449 41.6435 6.99361 41.8489 6.97802 41.7343C6.95295 41.5502 7.17525 41.3702 7.8027 41.0665C8.35123 40.8009 8.38156 40.7625 8.33159 40.3954L8.27858 40.0059L7.60569 40.3403C7.13495 40.5741 6.89114 40.6428 6.79414 40.569C6.52764 40.3661 6.74486 40.1045 7.44292 39.7883L8.14652 39.4695L7.99584 38.1185C7.84847 36.7978 7.83892 36.7667 7.57092 36.7324C6.84872 36.6402 6.56387 36.7746 6.27772 37.3422C5.83903 38.2125 5.60394 38.3567 5.98245 37.5233C6.47647 36.4354 6.53252 36.3732 6.91504 36.4886C7.09009 36.5413 7.36142 36.5671 7.51789 36.5458L7.80242 36.5072L7.39154 33.4881C6.93636 30.1436 7.02381 30.3564 6.24309 30.692ZM30.5833 28.9121C28.093 29.5187 27.1707 30.5632 28.2764 31.5245C29.0593 32.205 31.2417 32.3451 36.9115 32.0787C37.6217 32.0454 38.3892 32.0204 38.617 32.0233C41.0533 32.0532 47.9482 31.284 50.8942 30.6535C54.1643 29.9537 56.8046 28.5091 56.6666 27.4952C56.6106 27.0835 55.8589 26.5785 54.9393 26.3347C53.7071 26.0081 52.3229 25.9615 50.6577 26.1903C49.3394 26.3714 48.6691 26.5154 46.3947 27.1065C45.302 27.3905 42.6676 28.0397 42.5179 28.0619C42.4595 28.0706 42.384 28.0214 42.3502 27.9524C42.3131 27.877 42.5056 27.7661 42.8341 27.6738C43.8914 27.3763 44.1315 27.2811 44.0243 27.2022C43.8741 27.0916 31.6975 28.6406 30.5833 28.9121ZM39.7833 28.4404C39.0605 28.6196 38.2424 28.8587 37.9654 28.9715C37.6884 29.0845 37.1466 29.3027 36.7614 29.4564C36.3763 29.6101 36.0677 29.7848 36.0759 29.8449C36.0846 29.9085 36.3881 29.884 36.8062 29.7859C37.9784 29.5108 38.2609 29.4074 38.2427 29.2599C38.2296 29.1531 38.2517 29.1508 38.3357 29.2503C38.4223 29.3532 38.6843 29.3113 39.5667 29.0535C40.1832 28.8733 40.7083 28.7231 40.7336 28.7197C40.7589 28.7163 40.7451 28.6717 40.7031 28.6206C40.6612 28.5695 40.9341 28.4499 41.3097 28.3548C42.0545 28.1664 42.23 27.914 41.5302 28.038C41.2923 28.08 40.5062 28.2612 39.7833 28.4404ZM15.6231 38.6904C15.0639 38.9801 14.884 39.2123 14.6147 39.9917C14.2275 41.1121 14.2125 42.1962 14.5573 44.1371C14.798 45.4919 14.9185 45.9272 15.1414 46.2486C15.3779 46.5893 15.4052 46.6995 15.3143 46.9443C15.1368 47.422 15.8506 49.5715 16.4541 50.3762C17.0116 51.1195 17.074 51.1199 21.6606 50.4085C23.901 50.0609 25.9271 49.6991 26.1628 49.6044C26.9941 49.2702 26.9901 49.1221 25.9643 42.3763C25.6353 40.2117 25.5953 39.7443 25.6995 39.2782C25.767 38.9764 25.8033 38.5855 25.7804 38.4098C25.7429 38.1223 25.6983 38.0958 25.3364 38.1449C25.1151 38.175 24.0148 38.1955 22.8912 38.1907C21.7677 38.1858 20.5048 38.1967 20.085 38.215C19.6651 38.2333 18.7928 38.2693 18.1466 38.295C16.5892 38.3571 16.1264 38.4296 15.6231 38.6904ZM22.3148 40.276C21.5052 40.5345 20.0463 40.9424 19.0727 41.1824C18.0992 41.4224 17.286 41.6407 17.2656 41.6674C17.2453 41.6942 17.2795 42.3846 17.3417 43.2019C17.4878 45.1246 17.9819 47.2728 18.3276 47.4886C18.4248 47.5493 19.4606 47.4925 20.8271 47.3515L23.1608 47.1108L23.2928 46.7395C23.3654 46.5353 23.4196 45.8943 23.4132 45.3151C23.3827 42.5634 23.6053 40.9219 24.1301 40.0278L24.3212 39.7021L24.0539 39.754C23.9069 39.7827 23.1243 40.0175 22.3148 40.276ZM7.13874 45.5194L6.51919 45.7414L6.75029 47.6773L6.98138 49.6131L7.89499 49.1439C8.39753 48.8859 8.89988 48.6612 9.01129 48.6448C9.28936 48.6038 9.25209 48.5079 8.87118 48.2837C8.49645 48.0632 8.20429 47.67 8.03176 47.154C7.84957 46.6096 8.04492 46.5849 8.27624 47.1232C8.3869 47.3807 8.68804 47.7757 8.94551 48.0009L9.41354 48.4104L9.20805 46.8683L9.00267 45.3263L8.68974 45.2535C8.31166 45.1656 7.95644 45.2265 7.13874 45.5194ZM35.4119 43.1958C35.3846 43.2351 34.8974 43.3659 34.3291 43.4865C33.4011 43.6833 32.7493 43.8843 31.2431 44.4379C29.4352 45.1023 29.275 46.3766 30.9277 46.9476C31.875 47.2749 33.529 47.3649 36.9121 47.2735C43.4193 47.0974 50.7546 46.4011 53.2405 45.7235C56.1728 44.9241 58.1911 43.9114 58.6114 43.0287C58.9982 42.216 57.9302 41.491 55.9133 41.1971C53.7286 40.8789 48.2623 41.9581 42.2587 43.8929C41.5524 44.1205 40.292 44.4296 39.4578 44.5799L37.9412 44.853L38.3083 44.5121C38.5597 44.2786 39.0471 44.0481 39.855 43.7805C40.5733 43.5426 41.0465 43.3267 41.0651 43.2282C41.0902 43.095 40.45 43.167 37.4074 43.6396C35.3788 43.9547 33.4883 44.2739 33.2061 44.3487C32.9239 44.4236 32.2566 44.5979 31.7231 44.7362C31.1896 44.8746 30.6523 45.0283 30.5291 45.0779C30.3556 45.1478 30.341 45.1384 30.4644 45.0363C30.6864 44.8525 32.0435 44.3689 32.9996 44.133C33.4396 44.0244 33.9014 43.902 34.0258 43.861C34.1502 43.8199 35.9176 43.5252 37.9533 43.2058C40.2276 42.8491 41.4712 42.615 41.1786 42.5988C40.5965 42.5665 35.4809 43.0961 35.4119 43.1958ZM42.3409 42.8925L41.7583 43.3864L42.8505 43.1649C44.3114 42.8687 45.9757 42.4244 46.0786 42.3032C46.1243 42.2493 45.5662 42.2503 44.8384 42.3055C44.1106 42.3607 43.382 42.4043 43.2193 42.4023C43.0282 42.4 42.7172 42.5736 42.3409 42.8925ZM7.35856 52.3429C7.66672 54.6072 7.73751 54.9494 7.90558 54.989C8.01177 55.014 8.59025 54.9677 9.19109 54.886L10.2835 54.7376L10.1225 53.5547L9.96154 52.3718L9.67896 52.7277C9.38588 53.0968 9.13894 53.0731 9.03557 52.6661C9.01084 52.5685 9.01045 52.8582 9.03456 53.3097C9.06885 53.9497 9.037 54.1444 8.88964 54.1936C8.72039 54.2504 8.68837 54.1279 8.58103 53.0137C8.51526 52.3299 8.4818 51.7247 8.50665 51.6686C8.53162 51.6125 8.82257 51.3285 9.15321 51.0374C9.48397 50.7465 9.68985 50.4961 9.61091 50.4812C9.53183 50.4662 9.25097 50.6472 8.98659 50.8835C8.42994 51.381 8.29233 51.4393 8.54408 51.0712C8.68094 50.8711 8.68437 50.8147 8.55889 50.8284C8.46891 50.8383 8.26123 50.6422 8.09732 50.3927C7.89346 50.0823 7.67374 49.9079 7.40196 49.8406L7.00463 49.7423L7.35856 52.3429ZM9.06092 49.9556C8.54465 50.2837 8.5164 50.4503 9.02398 50.1738L9.34008 50.0017L9.09419 50.352L8.84829 50.7023L9.21374 50.4084C9.42202 50.2409 9.57281 50.0112 9.56431 49.8741C9.55613 49.7419 9.54562 49.6387 9.54113 49.6447C9.53654 49.6509 9.32047 49.7907 9.06092 49.9556ZM9.1759 51.5904C8.70622 51.99 8.76379 52.1058 9.38992 52.0206C9.89588 51.9519 9.91614 51.9349 9.84065 51.6433C9.73779 51.2451 9.59507 51.2337 9.1759 51.5904ZM18.0798 53.8633C17.8051 53.9935 17.4641 54.2223 17.322 54.3716L17.0636 54.643L17.698 54.5304C18.047 54.4684 18.6482 54.3941 19.0341 54.365L19.7358 54.3122L19.1681 54.4815C18.8559 54.5746 18.3244 54.6929 17.9871 54.7444C16.9119 54.9088 16.5322 55.346 16.3829 56.5912C16.2324 57.8478 16.2177 57.8319 17.3891 57.6861L18.4056 57.5595L17.4465 57.8907L16.4874 58.222L16.535 58.8347C16.6086 59.7833 17.6219 63.7436 18.0419 64.7241C18.3107 65.3518 18.5409 65.7018 18.8482 65.9502L19.2783 66.2981L23.7841 65.6508C28.9713 64.9056 28.8409 64.9494 28.8566 63.9531C28.8692 63.1573 28.4029 59.7305 28.0307 57.8838C27.7541 56.5111 27.7259 56.1756 27.7894 55.0082C27.8289 54.2813 27.8511 53.6122 27.8387 53.5213C27.8213 53.3931 27.2281 53.3617 25.1911 53.3811C23.7472 53.3949 21.964 53.412 21.2282 53.419C19.5822 53.4347 18.7299 53.555 18.0798 53.8633ZM7.88746 56.2291C8.00137 57.0661 7.99966 57.0657 9.06717 56.505C9.47698 56.2897 9.82466 56.123 9.83982 56.1345C9.85496 56.1459 9.45954 56.4488 8.96114 56.8075L8.05492 57.4596L8.14754 58.1401L8.24015 58.8206L8.72386 58.6855L9.20757 58.5505L8.73394 58.8516C8.38884 59.0711 8.2862 59.1998 8.35554 59.3264C8.40799 59.4219 8.47152 59.6526 8.49689 59.839C8.54064 60.1605 8.56815 60.1742 9.03568 60.1087C9.3619 60.0629 9.72447 59.8937 10.1088 59.608C10.4279 59.3707 10.7104 59.1736 10.7363 59.1701C10.7622 59.1666 10.7861 59.307 10.7893 59.4821C10.7945 59.7515 10.638 59.914 9.77335 60.5375L8.75133 61.2745L8.85334 62.0241L8.95533 62.7735L9.906 62.9115C10.4288 62.9875 10.8879 63.0735 10.9263 63.1027C10.9646 63.1319 10.7395 63.1914 10.426 63.2349C9.76439 63.3267 9.34702 63.4814 9.36692 63.6276C9.38487 63.7595 9.90884 63.6867 10.4104 63.4827C10.6259 63.3951 10.9361 63.2738 11.0997 63.2131C11.3822 63.1085 11.3947 63.0569 11.3461 62.1925C11.3179 61.6918 11.1836 60.7742 11.0478 60.1535C10.912 59.5327 10.8381 58.9941 10.8837 58.9566C10.9293 58.919 10.8738 58.2065 10.7603 57.3731L10.5541 55.8578L10.2443 55.9687C9.95188 56.0734 9.94816 56.0703 10.1777 55.9134C10.3114 55.8219 10.4078 55.6506 10.3917 55.5326C10.3673 55.3536 10.2696 55.3308 9.79961 55.3946C9.48991 55.4367 8.91118 55.4812 8.51355 55.4935L7.79038 55.5158L7.88746 56.2291ZM25.1148 55.2076C24.669 55.3782 21.1047 56.4016 20.0367 56.6657C19.2026 56.8719 19.2311 56.7834 19.3816 58.7046C19.4888 60.0723 19.9326 62.1267 20.2008 62.4975C20.4274 62.8108 20.9967 62.8357 23.1342 62.6263L25.1382 62.4298L25.2814 62.1291C25.435 61.8067 25.4809 61.1401 25.4617 59.5154C25.4441 58.0317 25.6278 56.6014 25.95 55.7126L26.2318 54.9351L25.8699 54.9962C25.6708 55.0298 25.331 55.125 25.1148 55.2076ZM18.6006 57.473C18.7163 57.4871 18.8989 57.4623 19.0066 57.4179C19.1143 57.3735 19.0197 57.362 18.7964 57.3924C18.5731 57.4227 18.4849 57.4591 18.6006 57.473ZM8.7143 60.5684C8.72879 60.6749 8.79423 60.7356 8.85967 60.7034C9.01346 60.6277 8.98676 60.4315 8.81832 60.3996C8.74666 60.386 8.69981 60.462 8.7143 60.5684ZM38.1799 58.7591C34.5697 59.49 32.9275 59.9637 32.3932 60.4283C32.2542 60.5492 32.0825 60.826 32.0116 61.0434C31.8918 61.4104 31.9004 61.4533 32.1323 61.6421C32.2695 61.754 32.4545 61.9793 32.5431 62.1427C32.7794 62.5784 33.1698 62.7155 34.4262 62.804C36.2143 62.9301 38.664 62.8757 44.7243 62.5755C46.3715 62.4939 48.6897 62.2341 52.0108 61.7592C54.932 61.3413 56.5329 60.9441 58.3398 60.1885C59.8035 59.5765 60.9032 58.6247 60.8235 58.0389C60.7433 57.4495 59.4361 56.8284 57.7921 56.5985C57.1354 56.5067 56.5796 56.5482 54.3421 56.8556C52.875 57.0572 51.3181 57.3098 50.8822 57.417C49.3317 57.7983 47.8016 58.2813 47.7786 58.3969C47.7651 58.4644 47.1798 58.5864 46.4 58.6842C44.8779 58.8751 45.0658 58.7601 47.1333 58.2348C47.8613 58.0499 48.2502 57.9059 48.1394 57.8623C48.0053 57.8094 45.2411 57.9141 44.611 57.9959C44.5673 58.0016 44.5346 58.1523 44.5384 58.3306C44.5438 58.5919 44.4788 58.6723 44.203 58.7449C43.9036 58.8238 43.8914 58.8428 44.1057 58.8977C44.2839 58.9434 44.1933 58.9868 43.7729 59.0572C42.6493 59.2455 41.697 59.4659 41.3105 59.627C40.405 60.0044 35.8565 61.0764 34.3853 61.259C33.7463 61.3384 33.3514 61.3664 33.5077 61.3213C34.5034 61.0342 35.5333 60.7577 36.528 60.5102C38.1948 60.0956 42.1022 58.9085 42.7676 58.6145L43.1019 58.4669L42.735 58.3752C42.3122 58.2695 40.7002 58.2847 40.0213 58.4007C39.7673 58.4443 38.9387 58.6055 38.1799 58.7591ZM10.396 63.7228C9.66679 63.9325 9.45718 64.0643 9.90425 64.0315C10.0597 64.0202 9.95682 64.074 9.67554 64.1513C9.33172 64.2457 9.16075 64.3549 9.15414 64.4842C9.1425 64.706 9.59479 64.7654 10.4307 64.6518C11.0372 64.5694 11.0003 64.7714 10.3643 65.0162L9.98905 65.1607L10.3581 65.1227C10.7873 65.0784 11.1083 65.1378 11.1255 65.2647C11.1322 65.3136 10.8204 65.5621 10.4327 65.8167C10.0451 66.0714 9.73107 66.3033 9.73501 66.3322C9.74602 66.4131 10.3295 66.1362 10.707 65.8708C11.2157 65.5131 11.2971 65.5698 10.8037 65.9382C10.5678 66.1143 10.1878 66.4135 9.95922 66.6029L9.54371 66.9474L9.86492 67.0081C10.1774 67.0673 10.1827 67.0789 10.0558 67.4356C9.72507 68.3659 10.6389 68.0835 11.7435 66.9139C11.9519 66.6933 11.9399 66.3968 11.6489 64.5749C11.4461 63.3045 11.5661 63.3862 10.396 63.7228ZM11.4986 67.6693C11.2703 67.9551 10.7552 68.3845 10.3539 68.6237L9.62426 69.0583L9.77746 69.9331C9.96299 70.9925 10.0577 71.0271 10.8581 70.3267C11.2327 69.9991 11.4734 69.8615 11.5585 69.9263C11.6438 69.9912 11.5137 70.1631 11.1803 70.4265C10.1988 71.2019 10.2096 71.1599 10.831 71.775C11.1308 72.0719 11.3401 72.3446 11.2958 72.3811C11.2515 72.4176 11.0119 72.5134 10.7635 72.5938C10.2105 72.7732 9.8716 72.9973 10.216 72.956C10.4394 72.9292 10.4397 72.931 10.241 73.1397C10.0565 73.3335 10.1192 73.3364 11.0206 73.1745C12.0715 72.9857 12.485 72.7468 12.6274 72.2458C12.6752 72.0776 12.5518 71.0343 12.3097 69.5602L11.9137 67.1498L11.4986 67.6693Z" fill="#DA775D"/>
</g>
<g clip-path="url(#clip1_3553_32)">
<path fill-rule="evenodd" clip-rule="evenodd" d="M125.228 13.91C124.27 13.7614 122.558 13.5078 121.422 13.3464C116.63 12.6653 108.547 11.2908 104.091 10.3992C102.974 10.1759 101.779 9.93769 101.435 9.87018C97.3585 9.06851 90.1933 7.2823 84.8063 5.72475C79.8358 4.28772 79.3669 4.20496 78.9876 4.69836C78.8903 4.82507 78.7016 6.37679 78.5684 8.14678C78.4352 9.91677 78.2636 12.0467 78.1871 12.88C78.1103 13.7132 77.9595 15.5468 77.8515 16.9547C77.5018 21.5168 76.5685 28.8251 75.6853 33.9194C75.0671 37.4838 74.5157 40.4898 73.9885 43.1682C72.1273 52.6263 72.1674 52.442 70.8467 57.6015C70.2095 60.0901 70.1912 60.2301 70.3897 61.0665C70.7881 62.745 71.922 63.5578 76.2782 65.2878C79.414 66.5331 82.303 67.4232 87.1805 68.6471C89.3389 69.1887 92.485 69.9958 94.1717 70.4407C95.8585 70.8854 98.7222 71.6404 100.536 72.1182C106.343 73.6482 116.582 75.7913 120.427 76.2816C122.208 76.5086 122.854 76.4871 123.492 76.1797C123.94 75.9641 124.006 75.8531 124.302 74.8183C124.48 74.1987 125.057 70.9252 125.586 67.5438C128.444 49.2449 129.216 39.4755 128.924 25.3045C128.848 21.5873 128.866 19.7892 128.999 17.8207C129.066 16.8286 129.082 15.7961 129.033 15.5261C128.878 14.6656 128.177 14.3677 125.228 13.91ZM97.8898 10.5884C97.0632 10.6037 96.0974 10.9523 95.353 11.5041C94.1548 12.3921 91.292 14.4821 90.3886 15.1287C89.9133 15.4687 89.471 15.7303 89.4056 15.7101C89.3402 15.6899 89.0995 15.4883 88.8707 15.2621C87.6676 14.0722 85.0196 14.227 83.4229 15.5806C82.2107 16.6083 82.027 18.274 82.9474 19.8901C83.5342 20.92 85.5636 23.6952 86.0169 24.0873C87.0688 24.9974 88.6193 25.3964 89.8954 25.0854C90.5745 24.92 92.5365 23.6318 95.707 21.2696C100.508 17.6928 101.5 16.9275 101.782 16.5833C102.187 16.0899 102.387 14.948 102.203 14.1886C102.008 13.3895 101.154 12.1777 100.303 11.4919C99.5587 10.892 98.7069 10.5731 97.8898 10.5884ZM97.7057 13.0341C97.5522 13.0593 96.9157 13.4503 96.2914 13.9028C95.6671 14.3553 94.7537 15.0154 94.2616 15.3697C93.7696 15.724 92.935 16.3265 92.4069 16.7086C91.8788 17.0907 90.9062 17.794 90.2457 18.2714C89.5852 18.749 88.9894 19.1225 88.9216 19.1015C88.8538 19.0806 88.5802 18.7116 88.3136 18.2816C87.7548 17.3804 87.3172 17.0464 86.631 16.9975C86.0749 16.9578 85.2444 17.4603 85.1015 17.923C85.0328 18.1456 85.3747 18.8151 86.3206 20.3095C87.5701 22.2837 87.6659 22.3961 88.2537 22.5777C89.0163 22.8135 89.6333 22.5726 91.0849 21.4724C91.6339 21.0564 92.5798 20.3597 93.187 19.9242C94.4023 19.0525 98.0612 16.2926 99.0111 15.5313L99.6134 15.0485L99.4388 14.4469C99.172 13.5276 98.422 12.916 97.7057 13.0341ZM113.472 24.4296C109.739 23.4895 104.085 22.6861 102.073 22.8098C101.592 22.8394 101.046 22.9651 100.858 23.0892C100.12 23.5777 100.28 24.5704 101.193 25.1613C101.986 25.675 104.598 26.022 109.314 26.2401C111.8 26.3551 114.705 26.7557 118.301 27.4792C121.175 28.0575 124.904 28.6995 125.042 28.6398C125.202 28.5707 124.789 28.3742 122.466 27.4162C119.617 26.2407 116.328 25.1486 113.472 24.4296ZM90.7151 27.5087C89.2571 27.5028 87.7981 28.055 86.131 29.2432C85.4976 29.6947 84.8982 30.0403 84.7989 30.0112C84.1313 29.8152 82.3909 29.586 81.956 29.6367C81.5457 29.6846 81.4336 29.7642 81.4352 30.0064C81.4364 30.1761 81.2305 31.4822 80.9778 32.9089C80.4914 35.6542 80.4706 36.1312 80.8271 36.3837C81.2046 36.6513 90.849 38.7994 91.1294 38.6784C91.2385 38.6314 91.4978 37.4661 91.8027 35.6526L92.2984 32.7033L93.0391 32.1419C93.9596 31.4439 94.2388 30.9947 94.2342 30.2185C94.2258 28.7662 92.6025 27.5163 90.7151 27.5087ZM89.8452 29.1424C88.2074 29.2621 86.2423 30.3967 84.887 32.0058L84.2801 32.7263L84.2688 31.9918C84.2579 31.2727 84.2457 31.2538 83.6839 31.0802C82.6405 30.7576 82.7105 30.6571 82.203 33.2099L81.7458 35.5094L82.1303 35.6031C82.3416 35.6546 82.9758 35.7987 83.5394 35.9234L84.5642 36.15L84.625 35.4754C84.7613 33.9626 86.9213 31.8563 90.127 30.1104C90.6751 29.8119 91.1422 29.507 91.1651 29.4328C91.229 29.2259 90.5995 29.0874 89.8452 29.1424ZM111.383 36.961C107.284 35.9497 101.985 35.1504 99.6204 35.1864C98.675 35.2008 98.0522 36.2199 98.5442 36.947C99.1444 37.8338 101.138 38.2923 105.668 38.5853C110.26 38.8824 111.977 39.1097 116.103 39.967C119.249 40.6208 121.205 40.9531 122.951 41.1309L124.082 41.2459L123.275 40.891C122.338 40.4792 115.292 38.0071 114.023 37.6454C113.551 37.5106 112.363 37.2026 111.383 36.961ZM90.5739 33.495C88.1256 34.8224 87.6661 35.1398 86.6984 36.1716L86.3001 36.5964L87.6509 36.9201C88.3937 37.0982 89.2879 37.2979 89.6378 37.3639L90.274 37.4839L90.5684 35.5685C90.9344 33.1857 90.9342 33.2997 90.5739 33.495ZM88.5217 40.178C87.1577 40.0107 84.5862 41.0292 83.0839 42.3319L82.4521 42.8798L81.2368 42.5046C80.3514 42.2311 79.9065 42.1573 79.5977 42.2327C79.1819 42.3342 79.1676 42.3635 78.8607 43.74C78.6885 44.5121 78.4472 45.8711 78.3246 46.7598C78.0388 48.8308 78.1154 48.9516 79.96 49.3385C80.6453 49.4822 82.6749 49.9176 84.4702 50.3061C86.2656 50.6946 87.9714 50.9987 88.2609 50.982C88.8865 50.9459 89.0823 50.6662 89.2542 49.5625C89.3217 49.129 89.5282 47.9884 89.7132 47.0278L90.0495 45.2812L90.6812 44.7251C91.8245 43.7188 91.8814 42.3922 90.8295 41.2779C90.3603 40.7809 89.2941 40.2729 88.5217 40.178ZM87.2694 41.7372C86.4483 41.784 85.4999 42.1863 84.5005 42.9118C83.9926 43.2806 83.158 43.8857 82.6461 44.2565L81.7154 44.9307L81.5443 44.27C81.4219 43.7975 81.2683 43.5648 81.005 43.4529C80.2677 43.1399 80.1449 43.3745 79.7928 45.7666C79.6161 46.9681 79.4927 47.9849 79.5188 48.0259C79.5449 48.0671 80.1381 48.2319 80.8371 48.3922L82.1081 48.6836L82.1951 48.0674C82.3855 46.7198 84.2131 44.884 87.164 43.076C88.3572 42.3451 88.651 42.1054 88.4354 42.0387C88.2813 41.9911 88.0727 41.897 87.9721 41.8298C87.8713 41.7627 87.5552 41.7209 87.2694 41.7372ZM108.093 48.3364C104.697 47.5941 99.4482 46.8426 97.7766 46.8595C96.5345 46.8719 95.8042 47.4878 96.0179 48.3429C96.1538 48.8869 96.7718 49.2876 98.1186 49.705C99.3186 50.077 100.558 50.225 104.435 50.4594C108.541 50.7078 112.359 51.2713 116.777 52.2814C118.954 52.7789 122.744 53.2821 122.6 53.0544C122.52 52.9282 114.052 49.9669 111.966 49.3356C110.965 49.0327 109.222 48.5831 108.093 48.3364ZM87.6569 46.366C86.3983 46.9473 85.6814 47.4269 84.8854 48.2201C84.4745 48.6298 84.1317 48.9859 84.1238 49.0116C84.0964 49.1 85.0745 49.3566 86.4527 49.6225L87.8327 49.8889L87.9528 49.5001C88.1681 48.8029 88.6242 46.063 88.5297 46.0338C88.4792 46.0182 88.0864 46.1678 87.6569 46.366ZM81.0681 44.9347C80.8573 45.0499 80.8608 45.0718 81.0897 45.0679C81.2401 45.0652 81.3793 45.0112 81.3989 44.9477C81.4502 44.7815 81.3554 44.7778 81.0681 44.9347ZM85.7065 52.2097C83.9022 52.3172 82.487 52.893 80.87 54.178C80.1014 54.7888 79.8259 54.9298 79.6332 54.8112C79.4969 54.7273 78.9281 54.562 78.3692 54.4436C76.8455 54.1211 76.831 54.1394 76.3837 56.9459C76.183 58.2046 75.9925 59.4272 75.9605 59.6626C75.9283 59.8978 75.9984 60.2926 76.1161 60.5397C76.2996 60.9249 76.4116 61.0025 76.902 61.0836C77.4679 61.1772 80.5344 61.8312 83.836 62.5621C86.7798 63.2139 86.8858 63.1752 87.1352 61.3555C87.2141 60.7788 87.3638 59.8871 87.4676 59.3739C87.5714 58.8606 87.6578 58.2055 87.6593 57.918C87.662 57.4329 87.7204 57.3599 88.4671 56.9061C89.5489 56.2488 89.7766 55.8154 89.5774 54.7936C89.4537 54.1583 89.2893 53.8611 88.8049 53.3972C88.0248 52.6502 86.7184 52.1495 85.7065 52.2097ZM84.8853 53.5897C83.8374 53.7077 82.0402 54.7195 80.629 55.9854C79.9833 56.5648 79.3955 57.0142 79.323 56.984C79.2506 56.9538 79.1258 56.8994 79.0458 56.8629C78.9659 56.8264 78.9723 56.564 79.0602 56.2795C79.21 55.7943 79.1927 55.7539 78.7782 55.6258C77.8808 55.3484 77.9112 55.2931 77.5762 57.8163L77.2683 60.1358L78.0594 60.2924C79.7692 60.6308 79.6356 60.6736 80.0524 59.6536C80.8167 57.7828 82.764 55.9796 85.3153 54.7805C86.4474 54.2484 86.7179 54.0638 86.5763 53.9193C86.279 53.6162 85.6825 53.4998 84.8853 53.5897ZM107.163 60.8593C102.449 59.8785 101.255 59.6464 99.7192 59.4118C97.9733 59.1451 95.3935 58.9416 94.7753 59.0217C93.8293 59.1445 93.4035 60.1539 93.9911 60.8812C94.8045 61.8881 96.8617 62.272 103.146 62.5899C105.336 62.7006 108.4 63.1318 111.172 63.7194C112.37 63.9734 114.094 64.313 115.002 64.4742C116.716 64.7785 119.928 65.1215 120.185 65.0278C120.544 64.8972 109.353 61.3147 107.163 60.8593ZM85.1579 58.2694C84.5311 58.5242 83.649 58.9933 83.1973 59.3116C82.396 59.8766 81.6955 60.6998 81.8323 60.9159C81.899 61.0214 85.478 61.8426 85.6145 61.7838C85.7065 61.7441 86.3005 58.5911 86.2988 58.1513C86.2974 57.816 86.2647 57.8194 85.1579 58.2694Z" fill="#DA775D"/>
</g>
<defs>
<clipPath id="clip0_3553_32">
<rect width="63.9723" height="63.9591" fill="white" transform="matrix(0.990889 -0.134683 0.134853 0.990866 0 12.5964)"/>
</clipPath>
<clipPath id="clip1_3553_32">
<rect width="63.9713" height="63.9601" fill="white" transform="matrix(0.955404 0.295303 -0.295072 0.955475 80.8782 0)"/>
</clipPath>
</defs>
</svg>
