<svg width="383" height="28" viewBox="0 0 383 28" fill="none" xmlns="http://www.w3.org/2000/svg">
<path d="M165.596 25.7255C181.052 24.4272 196.511 23.4266 212.006 22.8576C220.701 22.5387 229.395 22.3562 238.095 22.1967C249.852 21.9812 262.239 22.0978 273.738 19.1837C274.345 19.0301 272.504 18.9755 271.885 18.8835C270.593 18.691 269.284 18.5975 267.988 18.4361C264.762 18.034 261.553 17.752 258.316 17.4783C247.191 16.5373 236.032 15.9142 224.869 15.8153C192.285 15.5259 160.364 15.5757 127.872 18.6571C117.444 19.6463 107.051 20.8211 96.6377 21.9732C94.2443 22.238 87.0111 22.0677 85.3456 24.3642C84.692 25.2653 87.5721 24.3563 88.6849 24.3233C90.6338 24.2657 92.5656 24.2919 94.5135 24.3627C100.718 24.5881 106.93 24.4695 113.132 24.1132C131.404 23.0634 149.749 22.558 168.046 21.8793C203.589 20.5613 239.079 17.3996 274.581 15.4004C285.208 14.8024 295.8 13.6464 306.427 13.1138C312.389 12.8151 320.539 13.5007 325.984 10.5502C327.11 9.94038 323.445 10.2209 322.176 10.0511C319.924 9.74989 317.711 9.4758 315.443 9.29567C307.919 8.69868 300.297 8.88519 292.752 8.48654C270.924 7.33291 249.06 6.84911 227.192 6.83582C181.602 6.80925 135.27 7.10798 89.8355 11.0684C71.9941 12.6236 50.9779 11.7579 33.891 17.8297C32.5853 18.2939 36.6643 17.8799 38.0448 17.9966C40.7148 18.2225 43.4286 18.0301 46.1075 18.2063C54.455 18.756 62.7853 18.1551 71.1363 17.9351C96.052 17.277 121.018 17.1806 145.968 16.6481C173.502 16.0599 200.913 13.1926 228.407 11.8185C259.748 10.2519 291.08 9.3301 322.408 7.5662C337.159 6.73543 351.911 6.48838 366.679 6.52233C368.78 6.52726 378.688 7.74633 380.117 6.08725C381.085 4.96512 377.196 5.5926 375.733 5.36523C372.424 4.85141 369.106 4.57585 365.777 4.23774C356.838 3.33117 347.828 2.65489 338.842 2.53283C311.479 2.16174 284.088 3.25238 256.73 2.72232C226.514 2.13714 196.028 3.85429 165.801 4.58859C138.602 5.24957 111.283 3.79129 84.0629 3.98619C57.0324 4.1801 29.5153 8.67718 2.5 6.66473" stroke="#FF561E" stroke-width="4.05049" stroke-miterlimit="1.5" stroke-linecap="round" stroke-linejoin="round"/>
</svg>
